<?xml version="1.0" encoding="UTF-8"?>
<svg width="820px" height="512px" viewBox="0 0 820 512" version="1.1" xmlns="http://www.w3.org/2000/svg" xmlns:xlink="http://www.w3.org/1999/xlink">
    <title>turtle-right</title>
    <defs>
        <linearGradient x1="-0.0847457627%" y1="50.2016327%" x2="99.8305085%" y2="50.2016327%" id="linearGradient-1">
            <stop stop-color="#A4B6CF" offset="0%"></stop>
            <stop stop-color="#486C9E" offset="100%"></stop>
        </linearGradient>
        <linearGradient x1="0.150829563%" y1="49.66505%" x2="100%" y2="49.66505%" id="linearGradient-2">
            <stop stop-color="#A4B6CF" offset="0%"></stop>
            <stop stop-color="#486C9E" offset="100%"></stop>
        </linearGradient>
        <linearGradient x1="0.106157113%" y1="49.6545986%" x2="100%" y2="49.6545986%" id="linearGradient-3">
            <stop stop-color="#A4B6CF" offset="0%"></stop>
            <stop stop-color="#486C9E" offset="100%"></stop>
        </linearGradient>
    </defs>
    <g id="DBSnapper" stroke="none" stroke-width="1" fill="none" fill-rule="evenodd">
        <g id="Group" transform="translate(0.009835, 0.000000)" fill-rule="nonzero">
            <g id="turtle-right">
                <g id="Group" transform="translate(409.600000, 256.000000) scale(-1, 1) translate(-409.600000, -256.000000) ">
                    <g transform="translate(150.907723, 44.354998)" fill="#FFFFFF" id="Path">
                        <path d="M49.3972797,1.87447287 C37.3153418,-4.17416613 23.345601,5.69466593 15.7943898,13.335052 C5.22269416,24.7956312 -1.57339591,39.758054 0.314406886,54.4021273 C1.06952801,62.0425135 5.60025472,70.3195984 14.2841476,73.5030926 C14.2841476,73.5030926 14.6617082,73.5030926 15.0392687,73.1847432 C8.99829976,61.4058146 13.5290265,47.7167895 21.4577982,37.529608 C24.8558433,33.3910656 30.1416911,28.6158242 36.5602206,30.5259208 C30.1416911,35.9378609 33.5397362,51.5369826 43.7338713,42.6231988 C44.4889924,50.2635849 42.9787502,57.903971 39.5807051,64.9076582 C41.0909474,64.9076582 42.9787502,64.9076582 44.4889924,64.5893088 C45.6216741,62.9975617 47.1319163,61.0874652 48.264598,59.4957181 C59.2138542,42.3048493 63.744581,18.1102933 49.0197191,1.55612345 L49.3972797,1.87447287 Z"></path>
                        <path d="M161.910327,424.324155 C161.155205,419.548913 160.400084,412.545226 153.603994,411.271828 C143.78742,416.04707 140.766935,426.552601 138.124011,435.466384 C141.899617,438.01318 146.052783,439.604927 150.58351,440.241626 C152.848873,434.511336 156.624479,428.781047 161.910327,424.324155 Z"></path>
                        <path d="M177.76787,445.016867 C178.900552,438.968228 180.410794,430.054444 173.237143,426.234251 C164.55325,426.87095 160.022524,435.466384 157.002039,441.833373 C163.043008,445.016867 170.97178,446.926964 178.145431,445.335216 L177.76787,445.016867 Z"></path>
                        <path d="M455.652442,438.01318 C453.764639,433.556288 450.744155,425.597552 443.570504,427.189299 C435.641733,433.556288 435.641733,444.061819 434.509051,452.657253 C438.662217,454.56735 443.570504,455.522398 448.478792,455.522398 C449.233913,449.155409 451.876837,443.42512 455.652442,438.01318 Z"></path>
                        <path d="M476.040712,455.522398 C475.285591,449.473759 474.908031,439.923276 466.224138,438.331529 C458.295366,440.878325 456.407563,449.792108 454.519761,456.159097 C461.315851,458.387543 469.999743,459.342591 476.040712,455.522398 Z"></path>
                    </g>
                    <g fill="#14331F">
                        <path d="M204.835729,12.4844327 C179.916732,0.705504145 149.711887,-4.38808659 122.527527,4.5256972 C82.1285471,15.3495775 47.0154151,37.634037 18.3208125,63.4203401 C1.33058731,78.0644135 -3.20013941,100.667222 2.08570843,120.086537 C7.37155627,140.779249 23.6066604,158.606817 43.2398095,171.659143 C52.6788235,177.707782 64.3832008,180.891276 76.0875782,181.846325 C89.3021978,200.628941 117.61924,207.314278 142.160676,209.542724 C138.762631,255.066692 161.416265,305.047551 210.499138,327.33201 C215.784985,327.33201 220.315712,325.421914 225.223999,324.148516 C209.366456,316.826479 195.019155,307.594346 183.692338,295.815417 C160.661144,271.939211 151.977251,240.104269 153.865054,209.861074 C156.885538,209.542724 159.528462,209.224375 162.548946,208.587676 C167.079673,207.632628 171.232839,206.35923 175.386005,204.767483 C145.936282,204.767483 114.221195,199.673892 91.5675611,182.801373 C116.864119,180.891276 147.824085,175.160987 160.283583,154.149925 C167.834794,156.378371 176.141127,157.651769 184.069898,155.423323 C172.743082,153.194877 161.416265,150.648081 151.977251,144.917792 C152.732372,147.464587 154.620175,150.011383 156.507977,152.239829 C147.446524,164.655456 130.078738,170.385746 114.221195,172.932541 C85.9041527,177.707782 52.3012629,172.932541 33.8007955,152.558178 C9.63691963,130.910417 1.33058731,93.3451857 26.2495843,70.1056779 C56.0768685,43.3643266 92.3226823,19.8064694 134.987026,10.8926856 C154.997735,6.43579372 176.141127,10.8926856 194.641594,17.8963729 C192.753791,19.1697706 191.243549,20.4431682 189.355746,21.7165659 L189.355746,22.9899636 C202.570366,18.8514211 222.958636,13.7578304 233.152771,25.2184096 C239.948861,41.1358806 233.530332,58.3267494 227.489363,73.925871 C234.663013,70.4240274 238.81618,63.7386895 241.081543,57.3717011 C242.214225,54.5065563 242.969346,51.6414115 243.724467,48.7762667 C258.449329,61.5102436 272.419069,76.1543169 278.460038,93.6635351 C279.59272,114.674597 270.908827,135.367309 258.449329,153.513226 C247.500072,169.430697 232.775211,183.438072 215.784985,194.898651 C220.315712,194.898651 224.468878,192.988554 228.622044,191.396807 C231.642529,190.12341 234.285453,188.531663 236.928377,187.258265 C238.438619,196.490398 241.459103,205.404182 245.98983,213.999616 C247.500072,209.224375 250.520557,204.767483 254.296162,200.94729 C252.030799,193.625253 249.387875,186.303217 248.632754,178.662831 C273.551751,155.741672 289.409295,124.543429 289.409295,93.3451857 C283.745886,70.7423768 264.112737,53.2331586 245.234709,37.3156876 C244.479588,30.3120003 245.234709,22.6716142 240.326422,16.6229752 C231.264968,8.98258909 216.540106,9.30093851 205.21329,13.1211316 L204.835729,12.4844327 Z" id="Path"></path>
                        <path d="M212.764501,56.4166528 C210.876698,49.4129656 207.478653,38.9074347 196.906957,39.2257841 C184.069898,39.8624829 171.98796,48.4579173 166.702113,57.6900505 C174.253324,49.731315 187.845504,39.8624829 200.305002,46.2294714 C215.029864,62.7836412 210.499138,86.9781972 199.549881,104.169066 C212.00938,91.4350891 216.162546,72.6524733 213.142061,56.4166528 L212.764501,56.4166528 Z" id="Path"></path>
                        <path d="M213.142061,115.947995 C210.121577,111.172753 201.815245,109.899356 195.774276,109.262657 C194.264033,109.262657 192.376231,109.262657 190.865988,109.581006 C182.182096,110.536054 173.498203,113.719549 166.324552,117.858091 C166.324552,117.858091 165.946991,117.858091 165.569431,118.176441 C161.793825,120.723236 158.39578,123.270031 155.752856,126.771875 C173.120642,118.49479 193.131352,112.127802 213.142061,115.947995 L213.142061,115.947995 Z" id="Path"></path>
                        <path d="M812.33067,345.159578 C799.116051,343.567831 785.901431,341.657734 773.441932,337.837541 C771.55413,339.747638 769.288766,341.339385 767.023403,343.249481 C778.72778,347.388024 791.564839,348.343072 804.024338,350.571518 C810.820428,352.799964 805.912141,358.848603 801.758974,360.758699 C776.084856,373.811026 744.369769,378.267918 714.920046,374.447724 C710.011758,376.357821 705.103471,378.267918 700.195184,380.814713 C736.818558,389.728497 779.860462,384.316557 810.442867,364.260543 C817.616518,360.44035 824.790169,347.706373 812.708231,345.159578 L812.33067,345.159578 Z" id="Path"></path>
                        <path d="M296.205385,454.353429 C304.889278,443.211199 319.236579,453.71673 319.9917,463.903912 C334.716562,461.675466 338.869728,478.229636 336.226804,487.461769 C335.849243,489.371865 335.471683,490.963613 334.716562,492.873709 C355.104832,496.693902 376.248223,498.922348 397.014054,494.783806 C407.96331,493.510408 414.7594,485.551672 416.647203,476.637889 C423.065733,450.533236 423.443293,423.155186 417.779885,397.050533 C417.779885,391.001894 414.004279,385.589954 414.004279,379.541315 C416.647203,382.724809 419.290127,385.908304 421.17793,389.410147 C425.708657,397.368883 427.218899,405.964317 429.106702,414.241402 C430.239383,419.334993 430.616944,424.746933 431.372065,429.840524 C432.882307,450.533236 432.127186,471.862647 423.443293,491.281962 C417.779885,504.015939 399.656978,506.244385 385.687237,507.199433 C348.308742,508.154481 310.930246,499.559047 276.949796,486.506721 C281.858083,453.71673 295.827824,421.881788 315.460973,393.23034 C317.348776,390.683545 319.236579,388.13675 321.124382,385.271605 C328.298032,376.357821 335.094122,366.807338 346.043379,360.758699 C324.899987,390.046846 308.664883,421.563439 296.582945,454.353429 L296.205385,454.353429 Z M304.134156,455.626827 C294.317582,460.402068 291.297097,470.907599 288.654173,479.821383 C292.429779,482.368178 296.582945,483.959925 301.113672,484.596624 C303.379035,478.866335 307.154641,473.136045 312.440489,468.679153 C311.685368,463.903912 310.930246,456.900225 304.134156,455.626827 Z M323.767306,470.58925 C315.083413,471.225948 310.552686,479.821383 307.532201,486.188371 C313.57317,489.371865 321.501942,491.281962 328.675593,489.690215 C329.808274,483.641576 331.318517,474.727792 324.144866,470.907599 L323.767306,470.58925 Z" id="Shape"></path>
                        <path d="M721.338575,477.592937 C720.961015,492.55536 703.215668,499.877396 688.490806,504.015939 C652.244993,513.566421 613.356255,513.884771 576.35532,508.472831 C573.712396,478.866335 576.35532,448.62314 583.906531,419.653342 C584.661652,417.106547 585.416774,414.241402 586.171895,411.694607 C586.549455,410.421209 586.927016,409.147811 587.304576,407.556064 C587.304576,406.601016 588.059697,405.645968 588.437258,404.37257 C591.457743,404.37257 594.100666,403.735871 597.121151,403.417522 C591.080182,425.701981 588.059697,448.30479 587.304576,470.907599 C590.325061,468.042454 593.345545,463.267213 598.631393,463.903912 C605.805044,465.177309 609.580649,470.907599 612.601134,476.00119 C625.060632,471.544298 633.744525,484.596624 633.744525,493.510408 C633.744525,496.057203 634.122086,498.285649 634.499646,500.832445 C655.643038,500.195746 677.919111,497.9673 697.174699,489.371865 C706.236153,485.870022 711.522001,477.911286 710.766879,469.634201 C709.634198,440.346055 699.817623,411.694607 685.092761,385.271605 C687.358125,384.316557 689.623488,383.679858 692.266412,383.043159 C711.522001,411.376257 723.981499,444.166248 721.338575,476.956238 L721.338575,477.592937 Z M594.855788,471.862647 C586.927016,478.229636 586.927016,488.735167 585.794334,497.330601 C589.9475,499.240698 594.855788,500.195746 599.764075,500.195746 C600.519196,493.828757 603.16212,488.098468 606.937725,482.686528 C605.049923,478.229636 602.029438,470.2709 594.855788,471.862647 Z M617.509421,482.686528 C609.580649,485.233323 607.692847,494.147107 605.805044,500.514095 C612.601134,502.742541 621.285027,503.697589 627.325996,499.877396 C626.570875,493.828757 626.193314,484.278275 617.509421,482.686528 Z" id="Shape"></path>
                    </g>
                    <g transform="translate(25.872024, 8.732904)" id="Path">
                        <path d="M168.39201,8.84511995 C149.891542,1.52308327 128.748151,-2.61545921 108.737441,1.84143269 C66.073098,10.7552165 29.4497237,34.3130736 0,61.054425 L0,62.3278227 C29.0721631,38.4516161 62.675053,16.8038555 103.074033,8.52677053 C122.329621,4.06987863 142.717892,7.89007169 160.463238,14.5754095 C161.59592,13.9387107 162.351041,13.3020118 163.483722,12.665313 C165.371525,11.3919153 166.881768,10.1185176 168.76957,8.84511995 L168.39201,8.84511995 Z" fill="#D7DF23"></path>
                        <path d="M252.210454,83.9755833 C246.169485,66.7847146 232.199744,52.1406412 217.474883,39.0883149 C216.719761,41.9534597 215.96464,44.8186045 214.831959,47.6837493 C227.669018,60.0993767 240.128516,73.151703 246.169485,88.7508246 C249.18997,107.85179 239.373395,126.316056 232.199744,143.825274 C244.281682,125.679357 253.343136,104.986645 252.210454,83.9755833 L252.210454,83.9755833 Z" fill="#D7DF23"></path>
                        <path d="M210.678792,177.888663 C208.035869,179.48041 205.392945,180.753807 202.37246,182.027205 C205.392945,195.71623 211.433914,208.768556 218.985125,220.865834 C218.985125,220.547485 218.985125,219.592437 218.985125,218.955738 C218.230004,214.180497 218.230004,209.405255 218.985125,204.630014 C214.454398,196.03458 211.811474,187.120796 209.923671,177.888663 L210.678792,177.888663 Z" fill="#D7DF23"></path>
                        <path d="M280.149935,318.599107 C264.292392,328.149589 246.924606,336.426674 227.669018,339.610168 C246.547046,355.845989 270.710921,366.988219 295.252358,376.538701 C302.426009,367.624917 309.222099,358.074435 320.171355,352.025796 C321.681597,351.070748 323.5694,350.434049 325.457203,349.479 C310.732341,338.97347 293.742116,330.378035 280.527496,318.280757 L280.149935,318.599107 Z" fill="#8DC63F"></path>
                        <path d="M778.152314,341.838614 C765.692816,339.610168 753.233317,338.65512 741.151379,334.516578 C738.886016,336.426674 736.620652,338.018421 734.73285,339.928518 C746.059666,343.430361 757.386483,345.022109 769.090861,346.613856 C772.866466,346.613856 774.754269,349.79735 775.50939,352.344145 C779.662556,350.434049 784.570844,344.06706 777.774754,342.156964 L778.152314,341.838614 Z" fill="#D7DF23"></path>
                        <path d="M561.432553,399.14151 C505.55359,404.8718 448.164385,397.549763 395.683467,380.677244 C400.214194,388.635979 401.724436,397.231414 403.612239,405.508499 C455.338035,413.467234 509.329195,414.740632 560.299871,402.961703 C560.677432,401.688306 561.054992,400.414908 561.432553,398.823161 L561.432553,399.14151 Z" fill="#8DC63F"></path>
                    </g>
                    <g transform="translate(10.392471, 15.337106)" fill="#8DC63F">
                        <path d="M178.585715,6.06111058 L178.585715,7.33450826 C191.800334,3.19596579 212.188605,-1.89762495 222.38274,9.56295421 C229.17883,25.4804253 222.7603,42.671294 216.719331,58.2704156 C223.892982,54.768572 228.046148,48.0832342 230.311511,41.7162457 C243.148571,54.1318732 255.608069,67.1841994 261.649038,82.7833211 C264.669522,101.884286 254.852948,120.348553 247.679297,137.857771 C236.730041,153.775242 222.005179,167.782616 205.014954,179.243196 C209.545681,179.243196 213.698847,177.333099 217.852013,175.741352 C220.872497,189.430377 226.913466,202.482703 234.464678,214.579981 C234.464678,214.261632 234.464678,213.306584 234.464678,212.669885 C239.750525,236.864441 254.852948,258.830551 272.598294,278.249866 C260.516356,290.347144 243.526131,298.305879 226.535906,304.672868 C209.545681,297.350831 193.688137,286.8453 181.98376,274.111323 C160.462808,251.190165 152.156476,221.583669 151.401354,192.932221 C155.932081,191.977172 160.085247,190.703775 164.238413,189.112028 C134.78869,189.112028 103.073603,184.018437 80.4199692,167.145918 C105.716527,165.235821 136.676493,159.505532 149.135991,138.49447 C156.687202,140.722916 164.993535,141.996313 172.922306,139.767867 C161.59549,137.539421 150.268673,134.992626 140.829659,129.262337 C141.58478,131.809132 143.472583,134.355927 145.360385,136.584373 C136.298932,149 118.931146,154.73029 103.073603,157.277086 C74.7565608,162.052327 41.1536709,157.277086 22.6532035,136.902723 C-1.51067235,115.254962 -9.81700467,77.6897303 15.1019923,54.4502226 L15.1019923,55.7236203 C44.1741554,31.8474137 77.7770452,10.1996531 118.176025,1.92256811 C137.431614,-2.53432379 157.819884,1.28586926 175.56523,7.97120711 C176.697912,7.33450826 177.453033,6.69780942 178.585715,6.06111058 Z M186.514487,24.2070276 C173.677427,24.8437264 161.59549,33.4391608 156.309642,42.671294 C145.737946,54.1318732 138.941856,69.0942959 140.829659,83.7383693 C141.58478,91.3787554 146.115507,99.6558404 154.799399,102.839335 C151.023794,105.38613 147.625749,107.932925 144.982825,111.434769 C162.350611,103.157684 182.36132,96.7906956 202.37203,100.610889 C199.351546,95.8356473 191.045213,94.5622496 185.004244,93.9255508 C186.136926,92.3338037 187.647168,90.4237072 188.77985,88.8319601 C201.239348,76.0979832 205.392515,57.3153674 202.37203,41.0795469 C200.484227,34.0758596 197.086182,23.5703287 186.514487,23.8886782 L186.514487,24.2070276 Z" id="Shape"></path>
                        <path d="M750.212403,333.005966 C736.620222,343.511497 720.762679,351.788582 704.527575,359.428968 C733.977298,363.249161 765.692385,358.792269 791.366504,345.739943 C790.233822,343.193147 788.346019,340.328003 784.947974,340.009653 C773.243597,338.736256 761.539219,336.826159 750.589963,333.324315 L750.212403,333.005966 Z" id="Path"></path>
                        <path d="M404.36693,363.88586 C386.621583,356.882173 369.253798,348.923437 353.018693,340.009653 C348.487967,340.646352 344.334801,341.6014 340.559195,343.511497 C338.671392,344.148196 337.16115,345.103244 335.273347,346.058292 C314.129956,375.346439 297.894852,406.863032 285.812914,439.653022 C294.496807,428.510792 308.844108,439.016323 309.599229,449.203505 C324.324091,446.975059 328.477257,463.529229 325.834333,472.761362 C344.712361,475.308157 364.34551,477.218254 382.845978,471.806314 C389.642068,469.896217 394.927916,465.439325 397.193279,459.709036 C407.764975,434.877781 407.387414,408.136429 407.387414,382.031777 C407.387414,375.983138 403.611808,370.571198 403.611808,364.522559 L404.36693,364.522559 L404.36693,363.88586 Z" id="Path"></path>
                        <path d="M692.068076,450.795252 C692.068076,423.735551 683.006623,396.9942 670.547124,372.162945 C643.740325,380.758379 615.423283,386.170319 586.72868,388.717115 C580.687711,411.001574 577.667227,433.604383 576.912106,456.207192 C579.93259,453.342047 582.953074,448.566806 588.238922,449.203505 C595.412573,450.476902 599.188179,456.207192 602.208663,461.300783 C614.668162,456.843891 623.352054,469.896217 623.352054,478.810001 C623.352054,478.810001 624.484736,479.765049 624.484736,480.083399 C642.985203,478.810001 662.240792,476.581555 678.853457,468.941169 C686.782228,465.439325 692.445637,458.435638 691.690516,450.795252 L692.068076,450.795252 Z" id="Path"></path>
                    </g>
                    <path d="M187.845504,75.1992687 C181.426974,73.2891721 176.141127,78.3827629 172.743082,82.2029559 C164.436749,92.3901374 159.906022,106.397512 166.324552,117.858091 C173.498203,113.719549 182.182096,110.536054 190.865988,109.581006 C194.264033,102.577319 195.774276,94.6185834 195.019155,87.2965467 C184.825019,96.2103305 181.426974,80.6112088 187.845504,75.1992687 L187.845504,75.1992687 Z" id="Path" fill="#141615"></path>
                    <path d="M281.480523,217.50146 C276.194675,210.816122 260.714692,201.902338 254.296162,211.77117 C266.00054,211.134471 275.439554,219.093207 280.347841,227.370292 C285.633689,237.239124 291.674658,246.789607 298.093187,256.340089 C300.358551,255.70339 302.623914,254.748342 304.511717,254.111643 C295.450264,242.332715 289.409295,229.280388 281.102962,217.50146 L281.480523,217.50146 Z" id="Path" fill="#D8BFAF"></path>
                    <path d="M307.154641,257.613487 C304.889278,258.250186 302.623914,258.886885 300.736111,259.523583 L300.736111,259.523583 C319.236579,286.264935 342.645334,310.141141 371.717497,328.605408 C373.227739,327.013661 374.737981,325.421914 376.248223,323.830167 C348.308742,305.68425 325.277548,282.763091 307.154641,257.295138 L307.154641,257.613487 Z" id="Path" fill="#D8BFAF"></path>
                    <path d="M779.860462,304.092502 C774.574614,296.133767 762.115116,295.497068 752.298541,296.452116 C751.54342,296.452116 750.410738,296.770466 749.655617,297.088815 C751.54342,298.043863 753.431223,299.635611 754.941465,300.909008 C762.492676,300.909008 771.93169,303.137454 775.329735,309.504443 C778.35022,315.553082 775.329735,322.238419 771.55413,327.33201 C771.55413,327.33201 771.55413,327.968709 771.93169,328.287058 C777.595099,321.283371 784.013628,312.687937 779.482901,304.092502 L779.860462,304.092502 Z" id="Path" fill="#D8BFAF"></path>
                    <path d="M736.818558,326.376962 L735.308316,326.376962 C714.920046,340.384336 691.13373,349.934819 666.592294,357.893555 C667.347415,358.848603 668.102536,359.485302 668.480097,360.44035 C693.021533,352.163265 717.185409,341.976084 736.440998,326.376962 L736.818558,326.376962 Z" id="Path" fill="#D8BFAF"></path>
                    <path d="M512.925146,369.354134 C465.730076,362.668796 418.912567,349.61647 379.646268,326.376962 C378.136026,327.968709 376.625784,329.560456 375.115542,331.152203 C415.514522,355.346759 463.842273,368.399085 512.547585,374.766074 C512.547585,373.174327 512.547585,371.26423 512.547585,369.672483 L512.925146,369.354134 Z" id="Path" fill="#D8BFAF"></path>
                    <path d="M662.816688,359.166952 C616.376739,372.219279 566.538746,376.039472 517.833433,369.990833 C517.833433,371.900929 517.833433,373.492676 517.833433,375.402773 C566.916306,380.178014 618.642103,376.99452 664.704491,361.077049 C664.326931,360.44035 663.194249,359.485302 662.816688,359.166952 L662.816688,359.166952 Z" id="Path" fill="#D8BFAF"></path>
                    <path d="M280.347841,227.688641 C275.439554,219.411556 266.00054,211.452821 254.296162,212.08952 C250.898117,220.048255 254.296162,228.64369 257.694208,236.284076 C263.735176,248.063004 270.153706,259.841933 278.082478,270.984163 C283.745886,265.253873 290.541976,260.160282 298.470748,256.976788 C292.052218,247.426305 286.01125,237.875823 280.725402,228.006991 L280.347841,227.688641 Z" id="Path" fill="#B0846C"></path>
                    <path d="M300.736111,259.841933 C292.052218,262.070379 286.01125,268.437367 279.970281,273.849307 C301.113672,301.864056 329.430714,326.376962 362.278483,344.841228 C364.543846,339.110939 367.56433,333.698999 371.339936,328.605408 C342.267773,310.141141 318.859018,285.946585 300.358551,259.841933 L300.736111,259.841933 Z" id="Path" fill="#B0846C"></path>
                    <path d="M775.329735,309.504443 C771.93169,303.137454 762.870237,300.909008 754.941465,300.909008 C754.941465,303.774153 754.941465,306.639298 753.808783,309.504443 C760.982434,314.279684 767.400963,320.328323 771.176569,327.33201 C774.952175,322.238419 777.972659,315.553082 774.952175,309.504443 L775.329735,309.504443 Z" id="Path" fill="#B0846C"></path>
                    <path d="M769.288766,331.788902 C765.513161,324.466865 759.849752,317.463178 752.298541,313.006286 C747.012693,317.463178 741.726845,322.238419 736.063437,326.695311 L737.573679,326.695311 C718.318091,341.976084 693.776654,352.163265 669.612778,360.758699 C673.765945,366.807338 676.031308,373.811026 676.786429,380.814713 C711.522001,370.627531 744.74733,355.02841 770.043887,332.107251 L769.288766,331.788902 Z" id="Path" fill="#B0846C"></path>
                    <path d="M375.493102,331.152203 C371.717497,336.245794 368.319452,341.657734 366.431649,347.706373 C408.718432,371.58258 457.046183,388.455099 507.639298,394.185389 C510.659783,387.8184 512.547585,381.133062 512.925146,374.447724 C464.219834,368.080736 415.892082,355.02841 375.493102,330.833854 L375.493102,331.152203 Z" id="Path" fill="#B0846C"></path>
                    <path d="M671.878142,381.769761 C671.878142,374.447724 668.857657,367.444037 664.704491,360.758699 C618.642103,376.67617 566.916306,379.859665 517.833433,375.084423 C517.078312,382.088111 514.812949,388.455099 512.547585,395.140437 C565.783624,401.507425 621.285027,396.732184 671.878142,381.769761 L671.878142,381.769761 Z" id="Path" fill="#B0846C"></path>
                    <path d="M749.278057,296.133767 C750.033178,296.133767 751.54342,296.133767 751.920981,296.452116 C761.737555,295.815417 774.197054,296.452116 779.482901,304.092502 C784.013628,312.687937 777.595099,321.283371 771.93169,328.287058 C771.93169,328.287058 771.93169,327.65036 771.55413,327.33201 C767.400963,320.328323 761.359995,314.279684 754.186344,309.504443 C754.941465,306.639298 755.319026,303.774153 755.319026,300.909008 C753.431223,299.635611 751.920981,298.362213 750.033178,297.088815 C750.033178,297.088815 749.278057,297.088815 748.900496,297.407165 C748.900496,299.95396 748.522935,302.500755 747.767814,305.047551 C745.502451,309.186093 741.349285,312.369587 737.573679,315.553082 C709.256637,336.564143 673.388384,349.29812 637.520131,356.938506 C634.499646,357.256856 631.856722,357.575205 628.836238,358.530253 C625.438193,359.485302 622.417708,360.122001 619.019663,360.758699 C546.905596,371.58258 469.128121,361.395398 405.697947,330.197155 C403.810144,328.287058 401.16722,327.65036 398.524296,326.695311 C396.636494,325.740263 394.748691,324.785215 392.860888,323.511817 C354.349711,301.545707 324.522427,270.029114 303.001475,235.329027 C301.868793,233.100582 301.113672,231.190485 299.225869,229.280388 C292.429779,213.681267 276.949796,197.127097 254.673723,199.992242 C250.520557,203.494085 247.877633,208.269327 246.367391,213.044568 C245.234709,217.819809 245.234709,222.595051 246.367391,227.370292 C251.653239,251.564848 266.755661,273.530958 284.501007,292.950273 C286.766371,295.497068 289.409295,298.043863 291.674658,300.590659 C296.582945,305.3659 301.868793,310.459491 307.154641,314.916383 C309.797565,317.144829 312.062928,319.373275 314.705852,321.283371 C330.185835,333.698999 346.7985,344.841228 364.543846,354.71006 C380.77895,363.942194 398.146736,371.58258 415.892082,378.586267 C469.883242,399.278979 529.915371,408.192763 589.192379,404.054221 C592.212864,404.054221 594.855788,403.417522 597.876272,403.099172 C626.570875,400.552377 654.887917,395.140437 681.694716,386.545002 C683.204959,385.908304 684.715201,385.589954 686.225443,384.953255 C688.490806,383.998207 690.75617,383.361508 693.399094,382.724809 C696.042018,381.769761 698.307381,380.496363 701.327865,380.178014 C705.858592,377.631219 711.14444,376.039472 716.052727,373.811026 C732.287831,366.488989 748.145375,357.893555 761.737555,347.388024 C764.002918,345.796277 766.268282,343.88618 768.156085,341.976084 C770.421448,340.065987 772.686811,338.47424 774.574614,336.564143 C781.370704,328.923757 789.677037,321.283371 791.9424,311.732889 C792.697521,294.860369 765.513161,285.309887 750.410738,294.860369 L749.278057,296.133767 Z M257.316647,236.284076 C253.918602,228.64369 250.520557,220.048255 253.918602,212.08952 C260.337131,202.220688 275.817114,211.134471 281.102962,217.819809 C289.409295,229.917087 295.450264,242.969414 304.511717,254.429993 C302.246354,255.385041 300.358551,256.02174 298.093187,256.658439 C290.164416,259.841933 283.368326,264.935524 277.704917,270.665813 C269.776145,259.523583 263.357616,248.063004 257.316647,235.965726 L257.316647,236.284076 Z M362.278483,345.159578 C329.430714,327.013661 301.113672,302.182406 279.970281,274.167657 C285.633689,268.437367 292.052218,262.388728 300.736111,260.160282 L300.736111,260.160282 C303.001475,258.886885 304.889278,258.250186 307.154641,257.931836 C325.277548,283.39979 348.308742,306.320948 376.248223,324.466865 C374.737981,326.058612 373.227739,327.65036 371.717497,329.242107 C367.941891,334.335697 364.543846,339.747638 362.656043,345.477927 L362.278483,345.159578 Z M366.054088,348.024723 C367.941891,341.976084 371.339936,336.564143 375.115542,331.470553 C376.625784,329.878806 378.136026,328.287058 379.646268,326.695311 C418.912567,349.934819 465.730076,362.987145 512.925146,369.672483 C512.925146,371.26423 512.925146,373.174327 512.925146,374.766074 C512.547585,381.451412 510.282222,388.13675 507.639298,394.503738 C457.046183,388.455099 408.718432,371.900929 366.431649,348.024723 L366.054088,348.024723 Z M512.170025,395.458786 C514.435388,388.773448 516.700752,382.40646 517.455873,375.402773 C517.455873,373.492676 517.455873,371.900929 517.455873,369.990833 C565.783624,376.039472 615.999179,372.219279 662.439128,359.166952 C662.816688,359.803651 663.94937,360.758699 664.326931,361.077049 C668.480097,367.444037 671.123021,374.447724 671.500581,382.088111 C620.529906,397.050533 565.406064,401.507425 512.170025,395.458786 L512.170025,395.458786 Z M676.031308,380.496363 C675.276187,373.492676 672.633263,366.807338 668.857657,360.44035 C668.102536,359.485302 667.347415,358.848603 666.969855,357.893555 C691.511291,350.253168 715.675167,340.702686 735.685876,326.376962 C741.349285,321.92007 747.012693,317.144829 751.920981,312.687937 C759.849752,317.463178 765.513161,324.148516 768.911206,331.470553 C743.992209,354.391711 710.389319,369.990833 675.653747,380.178014 L676.031308,380.496363 Z" id="Shape" fill="#1A1A1A"></path>
                    <g transform="translate(153.315406, 207.632628)" fill="#39B54A" id="Path">
                        <path d="M8.85597959,0.318349421 C5.83549511,0.955048263 3.19257119,1.27339768 0.172086706,1.59174711 C-1.33815553,31.8349421 6.96817679,63.6698842 29.9993709,87.5460908 C41.3261877,99.3250194 55.673489,108.875502 71.5310325,115.879189 C75.6841987,114.605792 79.8373649,113.332394 83.990531,111.740647 C67.0003058,104.41861 51.1427623,93.9130792 39.4383849,81.1791024 C17.917433,58.2579441 9.6111007,28.6514479 8.85597959,0 L8.85597959,0.318349421 Z"></path>
                        <path d="M531.777355,177.957326 C530.267113,178.594025 528.756871,178.912375 527.246628,179.549073 C539.706127,204.380328 548.76758,231.12168 548.76758,258.18138 C549.522701,265.821767 543.859293,272.825454 535.930521,276.327297 C519.317857,283.967684 500.062268,286.514479 481.561801,287.469527 C481.561801,287.469527 480.429119,286.514479 480.429119,286.19613 C480.429119,288.742925 480.80668,290.971371 481.18424,293.518166 C502.327631,292.881467 524.603704,290.653021 543.859293,282.057587 C552.920746,278.555743 558.206594,270.597008 557.451473,262.319923 C556.318792,233.031776 546.502217,204.380328 531.777355,177.957326 L531.777355,177.957326 Z"></path>
                        <path d="M263.331797,269.005261 C269.750327,242.900608 270.127887,215.522558 264.464479,189.417906 C264.464479,215.522558 264.842039,242.263909 254.270344,267.095164 C252.382541,272.825454 246.719132,277.282346 239.923042,279.192442 C221.422575,284.604382 201.789426,282.375936 182.911398,280.147491 C182.533837,282.057587 182.156277,283.649334 181.401155,285.559431 C201.789426,289.379624 222.932817,291.60807 243.698648,287.469527 C254.647904,286.19613 261.443994,278.237394 263.331797,269.32361 L263.331797,269.005261 Z"></path>
                    </g>
                    <g transform="translate(210.097785, 293.268622)" fill="#14331F" id="Path">
                        <path d="M80.4441916,7.64038611 C77.8012676,5.09359074 75.5359043,2.54679537 73.2705409,0 C61.188603,12.097278 44.1983778,20.0560135 27.2081526,26.4230019 C23.0549864,28.0147491 18.9018203,29.2881467 14.7486541,30.5615444 C9.84036685,31.8349421 5.30964013,33.7450386 0.023792291,33.7450386 C-0.731328829,47.4340637 16.6364569,55.3927993 30.9837582,55.3927993 C50.2393468,75.7671622 77.8012676,88.8194885 104.985628,99.9617182 C106.873431,97.4149228 108.761234,94.8681275 110.649036,92.0029827 C86.4851605,82.1341506 62.3212847,71.3102703 43.0656961,55.0744498 C62.3212847,51.8909556 79.6890704,43.6138707 95.546614,34.0633881 C98.1895379,32.4716409 100.832462,30.5615444 103.097825,28.3330985 C100.454901,26.1046525 97.8119773,24.194556 95.546614,21.9661101 C83.0871155,32.4716409 66.0968903,39.1569788 49.1066651,42.340473 C38.5349694,43.6138707 25.3203498,43.6138707 17.391578,36.6101834 C39.6676511,29.6064962 62.6988452,21.6477606 80.4441916,7.64038611 Z"></path>
                        <path d="M375.696549,118.425985 C324.725874,130.204913 270.734714,128.931516 219.008917,120.97278 C220.141599,126.066371 220.519159,131.478311 221.27428,136.571902 C221.27428,134.343456 221.27428,132.433359 220.89672,130.204913 C271.489835,137.845299 323.970753,137.845299 373.808747,126.38472 C374.563868,123.837925 375.318989,120.97278 376.07411,118.425985 L375.696549,118.425985 Z"></path>
                    </g>
                    <g transform="translate(227.489363, 300.909008)" fill="#009444" id="Path">
                        <path d="M63.0526135,0 C45.3072672,14.0073745 22.6536336,21.9661101 0,28.9697973 C7.92877176,36.291834 21.1433914,35.9734846 31.715087,34.7000869 C49.0828728,31.5165927 65.6955374,24.8312548 78.1550359,14.3257239 C72.8691881,9.86883205 67.5833402,4.77524132 62.675053,0 L63.0526135,0 Z"></path>
                        <path d="M135.921802,54.1194016 C118.176455,44.2505695 101.563791,33.1083398 86.0838077,20.6927124 C83.8184443,22.6028089 81.1755204,24.5129054 78.5325965,26.4230019 C91.7472161,38.5202799 108.737441,47.1157143 123.462303,57.6212452 C127.615469,56.0294981 131.768635,54.7561004 135.921802,54.1194016 Z"></path>
                        <path d="M360.570335,103.781911 C301.293327,107.920454 241.261198,99.0066699 187.270038,78.3139576 L186.514917,78.3139576 C189.157841,81.8158012 191.800764,84.9992954 193.688567,88.5011391 C246.169485,105.055309 303.55869,112.377346 359.437653,106.965405 C359.437653,106.010357 360.192774,105.055309 360.570335,103.781911 Z"></path>
                    </g>
                    <path d="M747.012693,305.047551 C744.74733,309.186093 740.594164,312.369587 736.818558,315.553082 C708.501516,336.564143 672.633263,349.29812 636.76501,356.938506 C633.744525,357.256856 631.101601,357.575205 628.081117,358.530253 C624.683072,359.485302 621.662587,360.122001 618.264542,360.758699 C546.150475,371.58258 468.373,361.395398 404.942826,330.197155 C403.055023,328.287058 400.412099,327.65036 397.769175,326.695311 C395.881372,325.740263 393.99357,324.785215 392.105767,323.511817 C353.59459,301.545707 323.767306,270.029114 302.246354,235.329027 C321.879503,234.05563 338.492167,226.733593 353.97215,217.819809 C380.023829,256.976788 445.719366,288.175031 523.496842,298.362213 C540.864627,300.590659 558.232413,301.864056 575.222638,301.864056 C637.14257,301.864056 691.13373,286.583284 720.205893,260.160282 C731.53271,274.167657 740.971724,288.81173 747.767814,304.729201 L747.012693,305.047551 Z" id="Path" fill="url(#linearGradient-1)"></path>
                    <path d="M665.082052,208.587676 C632.989404,221.321653 582.77385,224.823497 530.670492,218.138159 C484.608104,212.08952 441.943761,198.400495 414.7594,180.891276 C426.463778,174.842637 479.699817,149.693033 564.273382,163.063709 C599.386514,168.793998 636.76501,188.531663 665.082052,208.906026 L665.082052,208.587676 Z" id="Path" fill="url(#linearGradient-2)"></path>
                    <path d="M714.920046,255.385041 C680.184474,288.493381 604.672362,303.455804 523.874402,292.950273 C447.98473,283.081441 384.176995,252.519896 359.257998,214.954665 C375.493102,204.767483 390.595525,193.306904 407.58575,184.71147 C435.902792,203.812435 479.699817,218.138159 529.16025,224.823497 C546.905596,227.051943 564.273382,228.32534 580.886047,228.32534 C616.376739,228.32534 648.091827,223.231749 670.74546,213.681267 C676.031308,217.819809 680.939595,221.640002 685.092761,225.460195 C695.664457,235.010678 705.481032,245.19786 714.542485,255.70339 L714.920046,255.385041 Z" id="Path" fill="url(#linearGradient-3)"></path>
                    <path d="M614.866497,171.977493 C589.192379,156.060022 532.180735,154.786624 532.180735,154.786624 C532.180735,154.786624 487.628589,159.561865 445.341806,178.026132 C469.505682,187.894964 499.332966,195.53535 530.670492,199.673892 C575.222638,205.404182 618.642103,203.494085 650.35719,194.898651 C636.009889,185.348168 623.17283,177.071083 614.488937,171.659143 L614.866497,171.977493 Z" id="Path" fill="#486C9E"></path>
                    <path d="M709.634198,241.696016 C708.501516,242.651064 706.991274,243.606112 705.858592,244.561161 C668.102536,272.25756 598.253833,284.036489 524.251963,274.167657 C465.352516,266.527271 413.626719,246.471257 381.911632,220.048255 C387.952601,215.909713 393.99357,211.134471 400.034539,205.722531 C406.075508,200.310591 412.494037,195.53535 419.667688,191.078458 C421.933051,189.80506 424.198414,188.213313 426.463778,187.258265 C453.270578,201.583989 490.649073,212.726219 531.048053,217.819809 C582.77385,224.505147 633.366965,221.003304 665.459612,208.269327 C661.684007,205.722531 657.908401,203.175736 654.132795,200.628941 C655.265477,200.310591 656.775719,199.992242 657.908401,199.673892 C676.031308,212.407869 695.286897,227.051943 710.011758,241.696016 L709.634198,241.696016 Z" id="Path" fill="#486C9E"></path>
                    <path d="M743.614648,291.358526 C742.859527,291.995224 742.104406,292.950273 741.349285,293.586972 C739.839043,294.860369 738.3288,296.133767 736.818558,297.407165 C708.501516,318.418226 672.633263,331.152203 636.76501,338.792589 C633.744525,339.110939 631.101601,339.429288 628.081117,340.384336 C624.683072,341.339385 621.662587,341.976084 618.264542,342.612782 C546.150475,353.436663 468.373,343.249481 404.942826,312.051238 C403.055023,310.141141 400.412099,309.504443 397.769175,308.549394 C395.881372,307.594346 393.99357,306.639298 392.105767,305.3659 C364.166285,289.448429 341.135091,268.755717 322.257063,245.516209 C333.58388,242.969414 348.308742,238.830871 363.788725,230.872136 C366.054088,229.917087 367.941891,228.64369 370.207254,227.370292 C399.656978,258.886885 457.423744,283.718139 524.251963,292.631923 C605.049923,303.137454 680.562035,288.175031 715.297606,255.066692 C713.787364,253.156595 712.277122,251.246499 710.389319,249.654751 C711.899561,248.699703 713.032243,247.744655 714.542485,246.789607 C719.828333,252.201547 723.981499,257.931836 727.379544,263.025427 C738.3288,280.534645 742.481967,287.856682 743.992209,291.040176 L743.614648,291.358526 Z" id="Path" fill="#486C9E"></path>
                    <path d="M749.278057,296.133767 C749.278057,296.133767 748.522935,296.133767 748.145375,296.133767 C738.3288,259.205234 708.123956,228.962039 676.786429,203.175736 C643.183539,176.752734 601.651878,155.741672 555.589489,150.966431 C515.945631,146.19119 474.036408,147.782937 436.657913,160.835263 C408.718432,170.067396 384.554556,185.348168 361.145801,200.94729 C342.267773,213.044568 322.634624,226.096894 298.470748,229.917087 C299.98099,231.827184 301.113672,234.05563 302.246354,235.965726 C321.879503,234.692329 338.492167,227.370292 353.97215,218.456508 C356.992635,222.9134 360.39068,227.051943 364.166285,231.190485 C394.748691,264.298825 454.403259,290.085128 523.496842,299.317261 C540.864627,301.545707 558.232413,302.819105 575.222638,302.819105 C637.14257,302.819105 691.13373,287.538333 720.205893,261.115331 C728.512226,271.620861 736.063437,282.444742 742.104406,293.905321 C743.992209,297.725514 745.880012,301.545707 747.767814,305.68425 C748.522935,303.137454 748.900496,300.590659 748.900496,298.043863 C748.900496,298.043863 749.655617,298.043863 750.033178,297.725514 C750.788299,297.725514 751.920981,297.088815 752.676102,297.088815 C751.920981,297.088815 750.410738,297.088815 750.033178,296.770466 L749.278057,296.133767 Z M564.273382,163.063709 C594.855788,167.83895 626.948435,183.756421 653.755235,200.94729 C657.530841,203.494085 661.306446,206.040881 665.082052,208.587676 C632.989404,221.321653 582.77385,224.823497 530.670492,218.138159 C490.649073,212.726219 453.270578,201.902338 426.086217,187.576614 C421.933051,185.348168 418.157446,183.119722 414.7594,180.891276 C426.463778,174.842637 479.699817,149.693033 564.273382,163.063709 L564.273382,163.063709 Z M524.251963,292.950273 C457.046183,284.036489 399.656978,259.523583 370.207254,227.688641 C366.431649,223.550099 362.656043,219.093207 360.013119,214.636315 C376.248223,204.449134 391.350646,192.988554 408.340871,184.39312 C412.116477,186.939915 415.892082,189.168361 420.045248,191.396807 C447.98473,206.995929 486.873467,218.774858 529.915371,224.505147 C547.660718,226.733593 565.028503,228.006991 581.641168,228.006991 C617.131861,228.006991 648.846948,222.9134 671.500581,213.362917 C676.786429,217.50146 681.694716,221.321653 685.847883,225.141846 C692.643973,231.508834 699.440063,238.194172 705.858592,244.87951 C707.368834,246.471257 708.879077,248.381354 710.389319,249.973101 C711.899561,251.883197 713.787364,253.793294 715.297606,255.385041 C680.562035,288.493381 605.049923,303.455804 524.251963,292.950273 L524.251963,292.950273 Z" id="Shape" fill="#1A1A1A"></path>
                </g>
                <g id="Group" transform="translate(429.877228, 286.720000) scale(-1, 1) translate(-429.877228, -286.720000) translate(421.766337, 279.893333)">
                    <ellipse id="Oval" fill="#1A1A1A" cx="7.14353711" cy="6.82666667" rx="7.14353711" ry="6.82666667"></ellipse>
                    <g transform="translate(1.934708, 0.000000)">
                        <path d="M6.69706604,13.0844444 C4.91118176,13.0844444 3.12529748,12.2311111 1.93470797,11.0933333 C0.744118449,9.95555556 0.14882369,8.24888889 0.14882369,6.54222222 C0.14882369,4.83555556 1.04176583,3.12888889 2.23235535,1.99111111 C3.42294486,0.853333333 5.20882914,0.284444444 6.69706604,0.284444444 C8.18530293,0.284444444 10.2688346,1.13777778 11.4594241,2.27555556 C14.1382505,4.83555556 13.8406031,8.81777778 11.4594241,11.3777778 C10.2688346,12.5155556 8.48295031,13.0844444 6.99471342,13.0844444 L6.69706604,13.0844444 Z" id="Path" fill="#28DB39"></path>
                        <path d="M6.69706604,0.568888889 L6.69706604,0.568888889 C8.48295031,0.568888889 9.97118721,1.13777778 11.1617767,2.56 C13.5429558,5.12 13.5429558,8.81777778 11.1617767,11.0933333 C9.97118721,12.2311111 8.48295031,12.8 6.69706604,12.8 C4.91118176,12.8 3.42294486,12.2311111 2.23235535,10.8088889 C1.04176583,9.67111111 0.446471069,7.96444444 0.446471069,6.54222222 C0.446471069,5.12 1.33941321,3.41333333 2.53000273,2.27555556 C3.72059224,1.13777778 5.20882914,0.568888889 6.99471342,0.568888889 M6.99471342,0 C5.20882914,0 3.42294486,0.568888889 2.23235535,1.70666667 C-0.744118449,4.26666667 -0.744118449,8.53333333 2.23235535,11.3777778 C3.72059224,12.8 5.50647652,13.3688889 7.2923608,13.3688889 C9.07824507,13.3688889 10.8641293,12.8 12.0547189,11.6622222 C15.0311927,9.10222222 15.0311927,4.83555556 12.0547189,1.99111111 C10.566482,0.568888889 8.78059769,0 6.99471342,0 L6.99471342,0 Z" id="Shape" fill="#1A1A1A"></path>
                    </g>
                </g>
                <g id="Group" transform="translate(446.099010, 266.240000) scale(-1, 1) translate(-446.099010, -266.240000) translate(437.988119, 259.413333)">
                    <ellipse id="Oval" fill="#1A1A1A" cx="7.35454391" cy="6.82666667" rx="7.35454391" ry="6.82666667"></ellipse>
                    <g transform="translate(1.551699, 0.000000)">
                        <path d="M7.33504162,13.0844444 C5.80284497,13.0844444 4.27064832,12.5155556 3.044891,11.6622222 C1.51269435,10.5244444 0.593376363,9.10222222 0.286937033,7.39555556 C0.286937033,5.68888889 0.286937033,3.98222222 1.81913368,2.56 C3.044891,0.853333333 5.18996631,0 7.33504162,0 C9.48011692,0 10.3994349,0.568888889 11.6251922,1.42222222 C14.6895855,3.69777778 15.3024642,7.68 12.8509496,10.5244444 C11.6251922,12.2311111 9.48011692,13.0844444 7.33504162,13.0844444 Z" id="Path" fill="#28DB39"></path>
                        <path d="M7.33504162,0 L7.33504162,0.568888889 C8.86723827,0.568888889 10.0929956,1.13777778 11.3187529,1.70666667 C14.0767069,3.69777778 14.6895855,7.68 12.5445102,10.24 C11.3187529,11.6622222 9.48011692,12.5155556 7.33504162,12.5155556 C5.18996631,12.5155556 4.57708765,11.9466667 3.35133033,11.3777778 C2.12557301,10.5244444 1.20625502,9.10222222 0.899815693,7.39555556 C0.899815693,5.68888889 0.899815693,4.26666667 2.12557301,2.84444444 C3.35133033,1.42222222 5.18996631,0.568888889 7.33504162,0.568888889 L7.33504162,0 M7.33504162,0 C5.18996631,0 3.044891,0.853333333 1.51269435,2.56 C-0.938820286,5.40444444 -0.325941626,9.67111111 2.73845167,11.9466667 C3.96420899,12.8 5.49640564,13.3688889 7.33504162,13.3688889 C9.17367759,13.3688889 11.6251922,12.5155556 13.1573889,10.8088889 C15.6089035,7.96444444 14.9960249,3.69777778 11.9316316,1.42222222 C10.7058742,0.568888889 9.17367759,0 7.33504162,0 L7.33504162,0 Z" id="Shape" fill="#1A1A1A"></path>
                    </g>
                </g>
                <g id="Group" transform="translate(470.431683, 252.586667) scale(-1, 1) translate(-470.431683, -252.586667) translate(462.320792, 245.760000)">
                    <ellipse id="Oval" fill="#1A1A1A" cx="7.21818795" cy="6.68734694" rx="7.21818795" ry="6.68734694"></ellipse>
                    <g transform="translate(2.124446, 0.557279)">
                        <path d="M6.89828941,12.817415 C4.79298459,12.817415 2.68767977,11.9814966 1.48464844,10.3096599 C-0.921414211,7.52326531 -0.319898548,3.62231293 2.68767977,1.39319728 C3.89071109,0.557278912 5.39450025,0 6.89828941,0 C9.00359422,0 11.108899,0.835918367 12.3119304,2.5077551 C13.5149617,3.90095238 13.8157195,5.57278912 13.5149617,7.24462585 C13.5149617,8.91646259 12.3119304,10.3096599 10.8081412,11.4242177 C9.60510989,12.2601361 8.10132073,12.817415 6.59753157,12.817415 L6.89828941,12.817415 Z" id="Path" fill="#28DB39"></path>
                        <path d="M6.89828941,0.557278912 L6.89828941,0.557278912 C9.00359422,0.557278912 10.8081412,1.39319728 12.0111725,2.78639456 C14.1164774,5.29414966 13.5149617,9.19510204 10.8081412,11.1455782 C9.60510989,11.9814966 8.40207856,12.2601361 6.89828941,12.2601361 C4.79298459,12.2601361 2.9884376,11.4242177 1.78540627,10.0310204 C0.883132777,8.63782313 0.281617115,7.24462585 0.582374946,5.57278912 C0.582374946,3.90095238 1.78540627,2.5077551 2.9884376,1.67183673 C4.19146892,0.835918367 5.39450025,0.557278912 6.89828941,0.557278912 M6.89828941,0 C5.39450025,0 3.89071109,0.557278912 2.68767977,1.39319728 C-0.319898548,3.62231293 -0.921414211,7.80190476 1.48464844,10.5882993 C2.9884376,12.2601361 5.09374242,13.0960544 7.19904724,13.0960544 C9.30435206,13.0960544 10.2066256,12.5387755 11.4096569,11.7028571 C14.4172352,9.4737415 15.0187509,5.29414966 12.6126882,2.5077551 C11.108899,0.835918367 9.00359422,0 6.89828941,0 L6.89828941,0 Z" id="Shape" fill="#1A1A1A"></path>
                    </g>
                </g>
            </g>
        </g>
    </g>
</svg>