<?xml version="1.0" encoding="UTF-8"?>
<svg width="120px" height="120px" viewBox="0 0 120 120" version="1.1" xmlns="http://www.w3.org/2000/svg" xmlns:xlink="http://www.w3.org/1999/xlink">
    <title>dbs-turtle-120-120</title>
    <defs>
        <linearGradient x1="-0.0847457627%" y1="50.2016327%" x2="99.8305085%" y2="50.2016327%" id="linearGradient-1">
            <stop stop-color="#A4B6CF" offset="0%"></stop>
            <stop stop-color="#486C9E" offset="100%"></stop>
        </linearGradient>
        <linearGradient x1="0.150829563%" y1="49.66505%" x2="100%" y2="49.66505%" id="linearGradient-2">
            <stop stop-color="#A4B6CF" offset="0%"></stop>
            <stop stop-color="#486C9E" offset="100%"></stop>
        </linearGradient>
        <linearGradient x1="0.106157113%" y1="49.6545986%" x2="100%" y2="49.6545986%" id="linearGradient-3">
            <stop stop-color="#A4B6CF" offset="0%"></stop>
            <stop stop-color="#486C9E" offset="100%"></stop>
        </linearGradient>
    </defs>
    <g id="dbs-turtle-120-120" stroke="none" stroke-width="1" fill="none" fill-rule="evenodd">
        <g id="Group" transform="translate(60.000000, 60.500000) scale(-1, 1) translate(-60.000000, -60.500000) translate(0.000000, 16.000000)" fill-rule="nonzero">
            <g>
                <g transform="translate(22.105623, 7.710146)" fill="#FFFFFF" id="Path">
                    <path d="M7.23592964,0.325836105 C5.46611452,-0.725587471 3.41976578,0.989893101 2.31363132,2.31800709 C0.765043091,4.31017808 -0.230477917,6.91106798 0.0460556961,9.45661979 C0.156669141,10.7847338 0.820349813,12.2235239 2.09240443,12.7769048 C2.09240443,12.7769048 2.14771116,12.7769048 2.20301788,12.7215667 C1.31811032,10.6740576 1.98179099,8.29452005 3.14323216,6.5237014 C3.64099267,5.80430632 4.41528679,4.97423507 5.35550107,5.30626357 C4.41528679,6.24701098 4.91304729,8.95857705 6.4063288,7.40911072 C6.51694225,8.73722471 6.29571536,10.0653387 5.79795485,11.2827765 C6.01918174,11.2827765 6.29571536,11.2827765 6.51694225,11.2274384 C6.68286241,10.950748 6.9040893,10.6187195 7.07000947,10.3420291 C8.67390443,7.35377264 9.3375851,3.14807834 7.18062292,0.270498022 L7.23592964,0.325836105 Z"></path>
                    <path d="M23.717333,73.7594722 C23.6067195,72.9294009 23.4961061,71.7119631 22.5005851,71.4906108 C21.0626103,72.320682 20.6201565,74.1468388 20.2330095,75.6963051 C20.7860767,76.1390098 21.3944506,76.4157002 22.0581313,76.5263763 C22.3899716,75.5302908 22.9430389,74.5342053 23.717333,73.7594722 Z"></path>
                    <path d="M26.0402153,77.3564476 C26.2061355,76.305024 26.4273624,74.7555577 25.3765347,74.0915007 C24.10448,74.2021769 23.4407994,75.6963051 22.9983456,76.8030668 C23.8832532,77.3564476 25.0446943,77.6884761 26.0955221,77.4117857 L26.0402153,77.3564476 Z"></path>
                    <path d="M66.7459632,76.1390098 C66.4694296,75.3642766 66.0269758,73.9808245 64.9761481,74.2575149 C63.8147069,75.3642766 63.8147069,77.1904333 63.6487867,78.6845616 C64.2571607,79.0165901 64.9761481,79.1826043 65.6951355,79.1826043 C65.8057489,78.0758427 66.192896,77.0797572 66.7459632,76.1390098 Z"></path>
                    <path d="M69.7325262,79.1826043 C69.6219128,78.1311807 69.5666061,76.4710383 68.2945514,76.1943478 C67.1331103,76.6370525 66.8565767,78.1865188 66.580043,79.2932805 C67.5755641,79.6806471 68.8476187,79.8466613 69.7325262,79.1826043 Z"></path>
                </g>
                <g fill="#14331F">
                    <path d="M30.0052338,2.17014553 C26.3549901,0.122636463 21.9304523,-0.762772865 17.9483682,0.786693458 C12.0305489,2.66818828 6.88702369,6.54185409 2.68371277,11.0242388 C0.194910251,13.5697906 -0.468770421,17.4987945 0.305523696,20.8744176 C1.07981781,24.471393 3.45800689,27.5703256 6.33395647,29.839187 C7.71662453,30.8906106 9.43113293,31.4439914 11.1456413,31.6100057 C13.0813766,34.8749526 17.2293808,36.0370523 20.8243178,36.4244189 C20.3265573,44.3377647 23.6449607,53.0258438 30.8348346,56.8995096 C31.6091287,56.8995096 32.2728094,56.5674811 32.9917968,56.3461287 C30.6689144,55.0733528 28.567259,53.4685484 26.9080573,51.4210394 C23.5343472,47.2706831 22.2622926,41.7368748 22.5388262,36.479757 C22.98128,36.4244189 23.368427,36.3690808 23.8108808,36.2584046 C24.4745615,36.0923904 25.0829354,35.8710381 25.6913094,35.5943476 C21.377385,35.5943476 16.7316203,34.7089383 13.413217,31.7760199 C17.1187674,31.4439914 21.6539186,30.4479059 23.4790405,26.7955924 C24.5851749,27.182959 25.8019228,27.4043114 26.963364,27.0169448 C25.3041623,26.6295782 23.6449607,26.1868735 22.2622926,25.190788 C22.372906,25.6334927 22.6494396,26.0761974 22.9259733,26.4635639 C21.5986119,28.6217492 19.0545027,29.6178347 16.7316203,30.0605393 C12.5836161,30.8906106 7.66131781,30.0605393 4.9512884,26.518902 C1.41165815,22.7559124 0.194910251,16.2260186 3.84515395,12.1863385 C8.21438504,7.53793958 13.5238304,3.44292144 19.7734901,1.89345512 C22.7047464,1.11872196 25.8019228,1.89345512 28.5119522,3.11089294 C28.2354186,3.33224527 28.0141917,3.55359761 27.7376581,3.77494994 L27.7376581,3.99630227 C29.6733934,3.27690719 32.6599564,2.39149786 34.153238,4.38366885 C35.148759,7.150573 34.2085447,10.1388295 33.3236371,12.8503955 C34.3744648,12.2416766 34.9828388,11.0795769 35.3146791,9.97281523 C35.4805993,9.47477248 35.5912127,8.97672974 35.7018262,8.47868699 C37.8587884,10.6922103 39.9051371,13.2377621 40.7900447,16.2813567 C40.9559648,19.9336702 39.6839102,23.5306456 37.8587884,26.6849163 C36.2548934,29.4518204 34.0979312,31.8866961 31.6091287,33.8788671 C32.2728094,33.8788671 32.8811833,33.5468386 33.4895573,33.2701482 C33.9320111,33.0487958 34.3191581,32.7721054 34.7063052,32.5507531 C34.9275321,34.1555575 35.3699859,35.7050238 36.0336665,37.199152 C36.2548934,36.3690808 36.6973472,35.5943476 37.2504144,34.9302906 C36.9185741,33.6575147 36.531427,32.3847388 36.4208136,31.0566248 C40.0710573,27.0722829 42.3939396,21.6491507 42.3939396,16.2260186 C41.5643388,12.2970147 38.6883892,9.25342015 35.9230531,6.486516 C35.8124396,5.26907818 35.9230531,3.94096419 35.2040657,2.88954061 C33.8767043,1.56142662 31.7197422,1.6167647 30.0605405,2.2808217 L30.0052338,2.17014553 Z" id="Path"></path>
                    <path d="M31.1666749,9.80680098 C30.8901413,8.58936315 30.3923808,6.76320642 28.8437926,6.8185445 C26.963364,6.92922067 25.1935489,8.42334891 24.4192548,10.0281533 C25.5253892,8.64470124 27.5164312,6.92922067 29.3415531,8.03598233 C31.4985153,10.9135626 30.8348346,15.1192569 29.2309396,18.1075134 C31.0560615,15.8939901 31.6644354,12.6290432 31.2219817,9.80680098 L31.1666749,9.80680098 Z" id="Path"></path>
                    <path d="M31.2219817,20.1550225 C30.7795279,19.3249512 29.56278,19.1035989 28.6778724,18.9929228 C28.4566455,18.9929228 28.1801119,18.9929228 27.958885,19.0482608 C26.6868304,19.2142751 25.4147758,19.7676559 24.363948,20.487051 C24.363948,20.487051 24.3086413,20.487051 24.2533346,20.5423891 C23.7002674,20.9850937 23.2025069,21.4277984 22.8153598,22.0365173 C25.3594691,20.5977272 28.2907254,19.4909655 31.2219817,20.1550225 L31.2219817,20.1550225 Z" id="Path"></path>
                    <path d="M118.993751,59.9984422 C117.058015,59.7217518 115.12228,59.3897233 113.297158,58.7256663 C113.020624,59.0576948 112.688784,59.3343852 112.356944,59.6664137 C114.071452,60.3858088 115.951881,60.5518231 117.777003,60.9391896 C118.772524,61.3265562 118.053536,62.3779798 117.445162,62.7100083 C113.684305,64.9788697 109.03854,65.7536028 104.724616,65.0895459 C104.005629,65.4215744 103.286641,65.7536028 102.567654,66.1963075 C107.932406,67.7457738 114.237372,66.8050264 118.717217,63.3187272 C119.768045,62.6546702 120.818872,60.4411469 119.049057,59.9984422 L118.993751,59.9984422 Z" id="Path"></path>
                    <path d="M43.3894606,78.9794047 C44.6615153,77.0425718 46.7631707,78.8687285 46.8737842,80.6395472 C49.0307464,80.2521806 49.6391203,83.1297609 49.2519732,84.7345653 C49.1966665,85.0665938 49.1413598,85.3432842 49.0307464,85.6753127 C52.0173094,86.3393697 55.1144858,86.7267363 58.1563556,86.0073412 C59.7602505,85.7859889 60.7557716,84.4025368 61.0323052,82.8530705 C61.9725195,78.3153477 62.0278262,73.5562725 61.1982253,69.0185497 C61.1982253,67.9671262 60.6451581,67.0263788 60.6451581,65.9749552 C61.0323052,66.528336 61.4194522,67.0817168 61.6959858,67.6904358 C62.3596665,69.0738878 62.5808934,70.5680161 62.857427,72.0068062 C63.0233472,72.8922156 63.0786539,73.832963 63.1892673,74.7183723 C63.4104942,78.3153477 63.2998808,82.0229992 62.0278262,85.3986223 C61.1982253,87.6121456 58.5435026,87.9995122 56.4971539,88.1655264 C51.0217884,88.3315407 45.5464228,86.8374125 40.5688178,84.5685511 C41.2878052,78.8687285 43.3341539,73.3349202 46.2101035,68.3544927 C46.4866371,67.9117881 46.7631707,67.4690834 47.0397043,66.9710407 C48.0905321,65.4215744 49.0860531,63.7614319 50.689948,62.7100083 C47.5927716,67.8011119 45.2145825,73.2795821 43.4447674,78.9794047 L43.3894606,78.9794047 Z M44.5509018,79.200757 C43.112927,80.0308283 42.6704732,81.856985 42.2833262,83.4064513 C42.8363934,83.849156 43.4447674,84.1258464 44.108448,84.2365226 C44.4402884,83.2404371 44.9933556,82.2443516 45.7676497,81.4696184 C45.6570363,80.6395472 45.5464228,79.4221093 44.5509018,79.200757 Z M47.4268514,81.8016469 C46.1547968,81.9123231 45.4911161,83.4064513 45.0486623,84.513213 C45.9335699,85.0665938 47.0950111,85.3986223 48.1458388,85.1219319 C48.311759,84.0705083 48.5329858,82.521042 47.4821581,81.856985 L47.4268514,81.8016469 Z" id="Shape"></path>
                    <path d="M105.66483,83.0190847 C105.609524,85.6199746 103.010108,86.8927505 100.853145,87.6121456 C95.5437001,89.2722881 89.8471077,89.3276262 84.4270488,88.3868788 C84.0399018,83.2404371 84.4270488,77.9833192 85.5331833,72.9475536 C85.6437967,72.504849 85.7544102,72.0068062 85.8650236,71.5641016 C85.9203304,71.3427492 85.9756371,71.1213969 86.0309438,70.8447065 C86.0309438,70.6786922 86.1415572,70.512678 86.196864,70.2913257 C86.6393178,70.2913257 87.0264648,70.1806495 87.4689186,70.1253114 C86.584011,73.9989772 86.1415572,77.9279811 86.0309438,81.856985 C86.4733976,81.3589422 86.9158514,80.528871 87.6901455,80.6395472 C88.7409732,80.8608995 89.2940404,81.856985 89.7364942,82.7423943 C91.5616161,81.9676612 92.8336707,84.2365226 92.8336707,85.7859889 C92.8336707,86.2286935 92.8889774,86.6160601 92.9442841,87.0587648 C96.0414606,86.9480886 99.3045572,86.560722 102.1252,85.0665938 C103.452561,84.4578749 104.226856,83.0744228 104.116242,81.6356327 C103.950322,76.544529 102.512347,71.5641016 100.355385,66.9710407 C100.687225,66.8050264 101.019066,66.6943503 101.406213,66.5836741 C104.226856,71.5087635 106.051977,77.208586 105.66483,82.9084086 L105.66483,83.0190847 Z M87.1370783,82.0229992 C85.9756371,83.1297609 85.9756371,84.9559176 85.8097169,86.4500459 C86.4180909,86.7820744 87.1370783,86.9480886 87.8560657,86.9480886 C87.9666791,85.841327 88.3538262,84.8452415 88.9068934,83.9044941 C88.6303598,83.1297609 88.187906,81.7463088 87.1370783,82.0229992 Z M90.4554816,83.9044941 C89.2940404,84.3471987 89.0175068,85.896665 88.7409732,87.0034267 C89.7364942,87.3907933 91.0085488,87.5568075 91.8934564,86.8927505 C91.782843,85.841327 91.7275362,84.1811845 90.4554816,83.9044941 Z" id="Shape"></path>
                </g>
                <g transform="translate(3.789847, 1.518024)" id="Path">
                    <path d="M24.6667983,1.53753062 C21.9567689,0.264754708 18.8595924,-0.45464037 15.9283361,0.320092791 C9.67867646,1.86955911 4.31392437,5.96457725 0,10.6129762 L0,10.8343286 C4.25861764,6.68397233 9.18091596,2.92098269 15.0987353,1.48219253 C17.9193781,0.707459372 20.9059412,1.37151637 23.5053571,2.53361611 C23.6712773,2.42293994 23.7818907,2.31226378 23.9478109,2.20158761 C24.2243445,1.98023528 24.4455714,1.75888295 24.722105,1.53753062 L24.6667983,1.53753062 Z" fill="#D7DF23"></path>
                    <path d="M36.9448907,14.5973182 C36.0599832,11.6090617 34.0136344,9.0635099 31.8566722,6.7946485 C31.7460588,7.29269124 31.6354454,7.79073399 31.4695252,8.28877674 C33.3499538,10.446962 35.1750756,12.7158234 36.0599832,15.4273894 C36.5024369,18.7476744 35.0644622,21.9572832 34.0136344,25.0008778 C35.7834496,21.8466071 37.1108109,18.2496317 36.9448907,14.5973182 L36.9448907,14.5973182 Z" fill="#D7DF23"></path>
                    <path d="M30.8611512,30.9220527 C30.4740042,31.1987431 30.0868571,31.4200954 29.6444033,31.6414477 C30.0868571,34.0209853 30.9717647,36.2898467 32.0778991,38.3926939 C32.0778991,38.3373558 32.0778991,38.1713415 32.0778991,38.0606654 C31.9672857,37.2305941 31.9672857,36.4005229 32.0778991,35.5704516 C31.4142185,34.0763234 31.0270714,32.5268571 30.7505378,30.9220527 L30.8611512,30.9220527 Z" fill="#D7DF23"></path>
                    <path d="M41.0375882,55.3814853 C38.7147059,57.0416278 36.1705966,58.480418 33.3499538,59.0337988 C36.1152899,61.856041 39.6549201,63.7928739 43.2498571,65.4530164 C44.3006848,63.9035501 45.2962059,62.2434076 46.9001008,61.191984 C47.1213277,61.0259698 47.3978613,60.9152936 47.6743949,60.7492794 C45.5174327,58.9231226 43.0286302,57.4289944 41.0928949,55.3261472 L41.0375882,55.3814853 Z" fill="#8DC63F"></path>
                    <path d="M113.987155,59.4211654 C112.162034,59.0337988 110.336912,58.8677846 108.567097,58.1483895 C108.235256,58.480418 107.903416,58.7571084 107.626882,59.0891369 C109.286084,59.6978558 110.945286,59.9745462 112.659794,60.2512366 C113.212861,60.2512366 113.489395,60.8046175 113.600008,61.2473221 C114.208382,60.9152936 114.92737,59.808532 113.931849,59.4765035 L113.987155,59.4211654 Z" fill="#D7DF23"></path>
                    <path d="M82.2410966,69.3820203 C74.0557016,70.3781058 65.6490798,69.1053299 57.9614453,66.1724115 C58.625126,67.5558636 58.8463529,69.0499918 59.1228865,70.488782 C66.6999075,71.8722341 74.6087689,72.0935864 82.0751764,70.0460773 C82.1304831,69.824725 82.1857899,69.6033727 82.2410966,69.3266822 L82.2410966,69.3820203 Z" fill="#8DC63F"></path>
                </g>
                <g transform="translate(1.522335, 2.666020)" fill="#8DC63F">
                    <path d="M26.1600168,1.05359149 L26.1600168,1.27494382 C28.0957521,0.555548741 31.0823151,-0.329860586 32.5755966,1.6623104 C33.5711176,4.42921455 32.6309034,7.41747103 31.7459958,10.1290371 C32.7968235,9.52031818 33.4051975,8.35821844 33.7370378,7.25145678 C35.6174664,9.40964201 37.4425882,11.6785034 38.3274958,14.3900695 C38.7699496,17.7103545 37.3319748,20.9199633 36.2811471,23.9635578 C34.6772521,26.730462 32.5202899,29.1653376 30.0314874,31.1575086 C30.6951681,31.1575086 31.303542,30.8254801 31.911916,30.5487897 C32.3543697,32.9283273 33.2392773,35.1971887 34.3454118,37.3000358 C34.3454118,37.2446977 34.3454118,37.0786835 34.3454118,36.9680073 C35.1197059,41.1737016 37.3319748,44.9920294 39.9313907,48.3676524 C38.1615756,50.4704996 35.6727731,51.8539516 33.1839706,52.9607133 C30.6951681,51.6879374 28.3722857,49.8617807 26.6577773,47.6482573 C23.5052941,43.6639154 22.2885462,38.5174736 22.1779328,33.5370462 C22.8416135,33.3710319 23.4499874,33.1496796 24.0583613,32.8729892 C19.744437,32.8729892 15.0986723,31.9875799 11.7802689,29.0546615 C15.4858193,28.722633 20.0209706,27.7265475 21.8460924,24.074234 C22.9522269,24.4616006 24.1689748,24.6829529 25.330416,24.2955863 C23.6712143,23.9082197 22.0120126,23.4655151 20.6293445,22.4694296 C20.739958,22.9121343 21.0164916,23.3548389 21.2930252,23.7422055 C19.9656639,25.9003907 17.4215546,26.8964762 15.0986723,27.3391809 C10.9506681,28.1692521 6.02836976,27.3391809 3.31834035,23.7975436 C-0.221289895,20.0345539 -1.43803779,13.5046602 2.2122059,9.4649801 L2.2122059,9.68633243 C6.47082355,5.53597621 11.3931219,1.77298657 17.3109412,0.334196409 C20.131584,-0.440536752 23.1181471,0.223520243 25.717563,1.38561999 C25.8834832,1.27494382 25.9940966,1.16426765 26.1600168,1.05359149 Z M27.321458,4.20786222 C25.4410294,4.31853838 23.6712143,5.81266662 22.8969202,7.41747103 C21.3483319,9.40964201 20.3528109,12.0105319 20.6293445,14.5560837 C20.739958,15.8841977 21.4036387,17.3229879 22.6756933,17.8763687 C22.1226261,18.3190734 21.6248656,18.761778 21.2377185,19.3704969 C23.7818277,17.9317068 26.713084,16.8249451 29.6443403,17.4890021 C29.2018866,16.6589309 27.9851387,16.4375785 27.1002311,16.3269024 C27.2661513,16.050212 27.4873782,15.7181835 27.6532983,15.4414931 C29.4784202,13.2279697 30.0867941,9.96302284 29.6443403,7.14078061 C29.3678067,5.92334279 28.8700462,4.09718605 27.321458,4.15252413 L27.321458,4.20786222 Z" id="Shape"></path>
                    <path d="M109.894395,57.8858027 C107.903353,59.7119594 105.580471,61.1507496 103.202281,62.4788636 C107.516206,63.1429206 112.161971,62.3681874 115.922828,60.099326 C115.756908,59.6566213 115.480374,59.1585786 114.982613,59.1032405 C113.268105,58.8818882 111.553597,58.5498597 109.949702,57.9411408 L109.894395,57.8858027 Z" id="Path"></path>
                    <path d="M59.233437,63.2535967 C56.634021,62.0361589 54.0899117,60.6527068 51.7117227,59.1032405 C51.048042,59.2139167 50.4396681,59.3799309 49.8866008,59.7119594 C49.6100672,59.8226356 49.3888403,59.9886498 49.1123067,60.1546641 C46.0151302,65.2457677 43.6369412,70.7242379 41.867126,76.4240605 C43.1391807,74.4872276 45.2408361,76.3133843 45.3514496,78.084203 C47.5084118,77.6968364 48.1167857,80.5744167 47.7296386,82.1792211 C50.4949748,82.6219258 53.3709244,82.9539543 56.0809538,82.0132069 C57.0764748,81.6811784 57.8507689,80.9064452 58.1826092,79.9103597 C59.7311975,75.5939892 59.6758907,70.9455903 59.6758907,66.4078675 C59.6758907,65.3564439 59.1228235,64.4156965 59.1228235,63.3642729 L59.233437,63.3642729 L59.233437,63.2535967 Z" id="Path"></path>
                    <path d="M101.37716,78.3608934 C101.37716,73.6571563 100.049798,69.0087574 98.2246764,64.6923869 C94.2978991,66.1865151 90.1498949,67.1272625 85.946584,67.5699672 C85.0616764,71.443633 84.6192227,75.3726369 84.5086092,79.3016408 C84.951063,78.803598 85.3935168,77.9735268 86.1678109,78.084203 C87.2186386,78.3055553 87.7717058,79.3016408 88.2141596,80.1870501 C90.0392815,79.412317 91.3113361,81.6811784 91.3113361,83.2306447 C91.3113361,83.2306447 91.4772563,83.3966589 91.4772563,83.451997 C94.1872857,83.2306447 97.0079285,82.8432781 99.4414243,81.5151641 C100.602865,80.9064452 101.432466,79.6890074 101.321853,78.3608934 L101.37716,78.3608934 Z" id="Path"></path>
                </g>
                <path d="M27.5164312,13.0717479 C26.576217,12.7397194 25.8019228,13.6251287 25.3041623,14.2891857 C24.0874144,16.0600044 23.4237338,18.49488 24.363948,20.487051 C25.4147758,19.7676559 26.6868304,19.2142751 27.958885,19.0482608 C28.4566455,17.830823 28.6778724,16.4473709 28.567259,15.174595 C27.0739775,16.7240613 26.576217,14.0124953 27.5164312,13.0717479 L27.5164312,13.0717479 Z" id="Path" fill="#141615"></path>
                <path d="M41.2324985,37.807871 C40.4582043,36.6457712 38.1906287,35.0963049 37.2504144,36.8117855 C38.9649228,36.7011093 40.3475909,38.0845614 41.0665783,39.5233515 C41.8408724,41.2388321 42.72578,42.8989746 43.6659943,44.5591171 C43.9978346,44.4484409 44.3296749,44.2824267 44.6062085,44.1717505 C43.2788472,42.1242414 42.3939396,39.85538 41.1771917,37.807871 L41.2324985,37.807871 Z" id="Path" fill="#D8BFAF"></path>
                <path d="M44.9933556,44.7804694 C44.6615153,44.8911456 44.3296749,45.0018217 44.0531413,45.1124979 L44.0531413,45.1124979 C46.7631707,49.7608969 50.1921875,53.9112531 54.4508052,57.1208619 C54.6720321,56.8441715 54.893259,56.5674811 55.1144858,56.2907907 C51.0217884,53.1365199 47.6480783,49.152178 44.9933556,44.7251313 L44.9933556,44.7804694 Z" id="Path" fill="#D8BFAF"></path>
                <path d="M114.237372,52.8598295 C113.463078,51.4763774 111.637956,51.3657013 110.199982,51.5317155 C110.089368,51.5317155 109.923448,51.5870536 109.812835,51.6423917 C110.089368,51.8084059 110.365902,52.0850964 110.587129,52.3064487 C111.693263,52.3064487 113.075931,52.6938153 113.573692,53.8005769 C114.016145,54.8520005 113.573692,56.0141002 113.020624,56.8995096 C113.020624,56.8995096 113.020624,57.0101857 113.075931,57.0655238 C113.905532,55.848086 114.845746,54.3539578 114.182066,52.8598295 L114.237372,52.8598295 Z" id="Path" fill="#D8BFAF"></path>
                <path d="M107.932406,56.7334953 L107.711179,56.7334953 C104.724616,59.168371 101.240293,60.8285135 97.6453556,62.2119655 C97.755969,62.3779798 97.8665825,62.488656 97.9218892,62.6546702 C101.516826,61.21588 105.056456,59.4450614 107.877099,56.7334953 L107.932406,56.7334953 Z" id="Path" fill="#D8BFAF"></path>
                <path d="M75.1355194,64.2041365 C68.2221791,63.0420368 61.3641455,60.7731754 55.6122463,56.7334953 C55.3910195,57.0101857 55.1697926,57.2868762 54.9485657,57.5635666 C60.866385,61.7692609 67.9456455,64.0381223 75.0802127,65.1448839 C75.0802127,64.8681935 75.0802127,64.536165 75.0802127,64.2594746 L75.1355194,64.2041365 Z" id="Path" fill="#D8BFAF"></path>
                <path d="M97.0922883,62.4333179 C90.2895614,64.7021793 82.9890741,65.3662363 75.8545068,64.3148127 C75.8545068,64.6468412 75.8545068,64.9235316 75.8545068,65.2555601 C83.0443808,66.0856313 90.6214018,65.5322505 97.3688219,62.7653464 C97.3135152,62.6546702 97.1475951,62.488656 97.0922883,62.4333179 L97.0922883,62.4333179 Z" id="Path" fill="#D8BFAF"></path>
                <path d="M41.0665783,39.5786896 C40.3475909,38.1398995 38.9649228,36.7564474 37.2504144,36.8671235 C36.7526539,38.2505756 37.2504144,39.7447039 37.7481749,41.0728179 C38.6330825,43.1203269 39.5732968,45.167836 40.734738,47.1046689 C41.5643388,46.1085834 42.5598598,45.2231741 43.721301,44.6697932 C42.7810867,43.0096508 41.8961791,41.3495083 41.121885,39.6340277 L41.0665783,39.5786896 Z" id="Path" fill="#B0846C"></path>
                <path d="M44.0531413,45.167836 C42.7810867,45.5552026 41.8961791,46.6619642 41.0112716,47.6027116 C44.108448,52.4724629 48.2564522,56.7334953 53.0681371,59.9431041 C53.3999774,58.9470186 53.8424312,58.0062712 54.3954984,57.1208619 C50.1368808,53.9112531 46.707864,49.7055588 43.9978346,45.167836 L44.0531413,45.167836 Z" id="Path" fill="#B0846C"></path>
                <path d="M113.573692,53.8005769 C113.075931,52.6938153 111.74857,52.3064487 110.587129,52.3064487 C110.587129,52.8044914 110.587129,53.3025342 110.421208,53.8005769 C111.472036,54.6306482 112.412251,55.6820718 112.965318,56.8995096 C113.518385,56.0141002 113.960839,54.8520005 113.518385,53.8005769 L113.573692,53.8005769 Z" id="Path" fill="#B0846C"></path>
                <path d="M112.688784,57.6742427 C112.135717,56.4014668 111.306116,55.184029 110.199982,54.4092958 C109.425687,55.184029 108.651393,56.0141002 107.821793,56.7888334 L108.043019,56.7888334 C105.222377,59.4450614 101.62744,61.21588 98.0878093,62.7100083 C98.6961833,63.7614319 99.0280236,64.9788697 99.1386371,66.1963075 C104.226856,64.4254889 109.093847,61.7139228 112.799398,57.7295808 L112.688784,57.6742427 Z" id="Path" fill="#B0846C"></path>
                <path d="M55.0038724,57.5635666 C54.4508052,58.4489759 53.9530447,59.3897233 53.6765111,60.4411469 C59.870864,64.5915031 66.9501245,67.5244215 74.3612253,68.520507 C74.8036791,67.4137453 75.0802127,66.2516456 75.1355194,65.0895459 C68.0009522,63.9827842 60.9216917,61.7139228 55.0038724,57.5082285 L55.0038724,57.5635666 Z" id="Path" fill="#B0846C"></path>
                <path d="M98.4196497,66.3623218 C98.4196497,65.0895459 97.9771959,63.872108 97.3688219,62.7100083 C90.6214018,65.4769124 83.0443808,66.0302933 75.8545068,65.200222 C75.7438934,66.4176598 75.4120531,67.5244215 75.0802127,68.6865212 C82.8784606,69.7932829 91.0085488,68.9632117 98.4196497,66.3623218 L98.4196497,66.3623218 Z" id="Path" fill="#B0846C"></path>
                <path d="M109.757528,51.4763774 C109.868141,51.4763774 110.089368,51.4763774 110.144675,51.5317155 C111.58265,51.4210394 113.407772,51.5317155 114.182066,52.8598295 C114.845746,54.3539578 113.905532,55.848086 113.075931,57.0655238 C113.075931,57.0655238 113.075931,56.9548477 113.020624,56.8995096 C112.412251,55.6820718 111.527343,54.6306482 110.476515,53.8005769 C110.587129,53.3025342 110.642435,52.8044914 110.642435,52.3064487 C110.365902,52.0850964 110.144675,51.863744 109.868141,51.6423917 C109.868141,51.6423917 109.757528,51.6423917 109.702221,51.6977298 C109.702221,52.1404344 109.646914,52.5831391 109.536301,53.0258438 C109.204461,53.7452388 108.596087,54.2986197 108.043019,54.8520005 C103.895015,58.504314 98.6408766,60.7178373 93.3867379,62.0459513 C92.9442841,62.1012894 92.5571371,62.1566275 92.1146833,62.3226417 C91.6169228,62.488656 91.174469,62.5993321 90.6767085,62.7100083 C80.1131245,64.5915031 68.7199396,62.8206845 59.4284102,57.3975523 C59.1518766,57.0655238 58.7647295,56.9548477 58.3775825,56.7888334 C58.1010489,56.6228192 57.8245153,56.4568049 57.5479816,56.2354526 C51.9066959,52.4171249 47.5374648,46.9386546 44.3849816,40.9068036 C44.2190615,40.519437 44.108448,40.1874085 43.8319144,39.85538 C42.8363934,37.143814 40.5688178,34.2662336 37.3057211,34.7642764 C36.6973472,35.3729953 36.3102001,36.2030666 36.0889733,37.0331378 C35.9230531,37.863209 35.9230531,38.6932803 36.0889733,39.5233515 C36.8632674,43.7290458 39.0755363,47.5473736 41.6749522,50.9229966 C42.0067926,51.3657013 42.3939396,51.8084059 42.72578,52.2511106 C43.4447674,53.0811819 44.2190615,53.9665912 44.9933556,54.7413243 C45.3805027,55.1286909 45.712343,55.5160575 46.0994901,55.848086 C48.3670657,58.0062712 50.8005615,59.9431041 53.3999774,61.6585847 C55.7781665,63.2633891 58.3222758,64.5915031 60.9216917,65.8089409 C68.8305531,69.4059163 77.624322,70.9553826 86.3074774,70.2359876 C86.7499312,70.2359876 87.1370783,70.1253114 87.579532,70.0699733 C91.782843,69.6272687 95.9308472,68.6865212 99.8576245,67.192393 C100.078851,67.0817168 100.300078,67.0263788 100.521305,66.9157026 C100.853145,66.7496883 101.184986,66.6390122 101.572133,66.528336 C101.95928,66.3623218 102.29112,66.1409694 102.733574,66.0856313 C103.397255,65.6429267 104.171549,65.3662363 104.890536,64.9788697 C107.268725,63.7060938 109.591608,62.2119655 111.58265,60.3858088 C111.91449,60.1091184 112.24633,59.7770899 112.522864,59.4450614 C112.854704,59.1130329 113.186545,58.8363425 113.463078,58.504314 C114.458599,57.1762 115.675347,55.848086 116.007187,54.1879435 C116.117801,51.2550251 112.135717,49.5948826 109.923448,51.2550251 L109.757528,51.4763774 Z M37.6928682,41.0728179 C37.1951077,39.7447039 36.6973472,38.2505756 37.1951077,36.8671235 C38.135322,35.151643 40.4028976,36.7011093 41.1771917,37.863209 C42.3939396,39.9660562 43.2788472,42.2349176 44.6062085,44.2270886 C44.2743682,44.3931028 43.9978346,44.503779 43.6659943,44.6144552 C42.5045531,45.167836 41.5090321,46.0532453 40.6794312,47.0493308 C39.5179901,45.1124979 38.5777758,43.1203269 37.6928682,41.0174798 L37.6928682,41.0728179 Z M53.0681371,59.9984422 C48.2564522,56.8441715 44.108448,52.527801 41.0112716,47.6580497 C41.8408724,46.6619642 42.7810867,45.6105407 44.0531413,45.2231741 L44.0531413,45.2231741 C44.3849816,45.0018217 44.6615153,44.8911456 44.9933556,44.8358075 C47.6480783,49.2628541 51.0217884,53.2471961 55.1144858,56.4014668 C54.893259,56.6781572 54.6720321,56.9548477 54.4508052,57.2315381 C53.8977379,58.1169474 53.3999774,59.0576948 53.1234438,60.0537803 L53.0681371,59.9984422 Z M53.6212043,60.496485 C53.8977379,59.4450614 54.3954984,58.504314 54.9485657,57.6189047 C55.1697926,57.3422142 55.3910195,57.0655238 55.6122463,56.7888334 C61.3641455,60.8285135 68.2221791,63.0973749 75.1355194,64.2594746 C75.1355194,64.536165 75.1355194,64.8681935 75.1355194,65.1448839 C75.0802127,66.3069837 74.7483724,67.4690834 74.3612253,68.5758451 C66.9501245,67.5244215 59.870864,64.6468412 53.6765111,60.496485 L53.6212043,60.496485 Z M75.024906,68.7418593 C75.3567463,67.5797596 75.6885867,66.4729979 75.7992001,65.2555601 C75.7992001,64.9235316 75.7992001,64.6468412 75.7992001,64.3148127 C82.8784606,65.3662363 90.2342547,64.7021793 97.0369816,62.4333179 C97.0922883,62.543994 97.2582085,62.7100083 97.3135152,62.7653464 C97.9218892,63.872108 98.3090362,65.0895459 98.364343,66.4176598 C90.8979354,69.0185497 82.8231539,69.7932829 75.024906,68.7418593 L75.024906,68.7418593 Z M99.0280236,66.1409694 C98.9174102,64.9235316 98.5302631,63.7614319 97.9771959,62.6546702 C97.8665825,62.488656 97.755969,62.3779798 97.7006623,62.2119655 C101.295599,60.8838515 104.83523,59.2237091 107.766486,56.7334953 C108.596087,55.9587622 109.425687,55.1286909 110.144675,54.3539578 C111.306116,55.184029 112.135717,56.3461287 112.633477,57.6189047 C108.983234,61.6032466 104.060935,64.3148127 98.9727169,66.0856313 L99.0280236,66.1409694 Z" id="Shape" fill="#1A1A1A"></path>
                <g transform="translate(22.458311, 36.092390)" fill="#39B54A" id="Path">
                    <path d="M1.29726263,0.055338083 C0.854808853,0.166014249 0.467661795,0.221352332 0.0252080136,0.276690415 C-0.196018877,5.5338083 1.02072902,11.0676166 4.3944391,15.2179728 C6.05364078,17.2654819 8.15529624,18.9256244 10.4781786,20.1430622 C11.0865525,19.9217099 11.6949265,19.7003575 12.3033004,19.4236671 C9.81449792,18.1508912 7.49161557,16.3247345 5.77710717,14.1112112 C2.62462398,10.1268692 1.40787608,4.98042747 1.29726263,0 L1.29726263,0.055338083 Z"></path>
                    <path d="M77.8970735,30.9339884 C77.6758466,31.0446645 77.4546197,31.1000026 77.2333928,31.2106788 C79.0585147,35.5270493 80.385876,40.1754482 80.385876,44.8791853 C80.4964895,46.2072993 79.6668886,47.4247371 78.5054475,48.033456 C76.0719517,49.36157 73.2513088,49.8042747 70.5412794,49.9702889 C70.5412794,49.9702889 70.3753592,49.8042747 70.3753592,49.7489366 C70.3753592,50.1916412 70.4306659,50.5790078 70.4859727,51.0217125 C73.5831491,50.9110363 76.8462458,50.5236697 79.6668886,49.0295415 C80.99425,48.4208226 81.7685441,47.0373705 81.6579306,45.5985804 C81.4920105,40.5074767 80.0540357,35.5270493 77.8970735,30.9339884 L77.8970735,30.9339884 Z"></path>
                    <path d="M38.5739937,46.7606801 C39.514208,42.2229573 39.5695147,37.4638822 38.7399139,32.9261594 C38.7399139,37.4638822 38.7952206,42.1122811 37.2466324,46.4286516 C36.9700987,47.4247371 36.1404979,48.1994703 35.1449769,48.5314988 C32.4349475,49.4722462 29.5589979,49.0848796 26.7936618,48.697513 C26.7383551,49.0295415 26.6830483,49.3062319 26.5724349,49.6382604 C29.5589979,50.3023174 32.6561744,50.689684 35.6980441,49.9702889 C37.3019391,49.7489366 38.2974601,48.3654845 38.5739937,46.8160182 L38.5739937,46.7606801 Z"></path>
                </g>
                <g transform="translate(30.776043, 50.978335)" fill="#14331F" id="Path">
                    <path d="M11.7838171,1.32811399 C11.3966701,0.885409327 11.0648297,0.442704664 10.7329894,0 C8.96317427,2.10284715 6.47437175,3.48629923 3.98556923,4.59306089 C3.37719528,4.8697513 2.76882133,5.09110363 2.16044738,5.31245596 C1.44145999,5.5338083 0.777779316,5.86583679 0.00348519888,5.86583679 C-0.107128246,8.24537436 2.436981,9.62882643 4.53863646,9.62882643 C7.35927931,13.1704637 11.3966701,15.4393251 15.3787541,17.376158 C15.6552877,16.9334534 15.9318213,16.4907487 16.2083549,15.992706 C12.6687247,14.2772254 9.12909444,12.3957306 6.30845158,9.57348835 C9.12909444,9.02010752 11.6732037,7.58131736 13.996086,5.92117488 C14.3832331,5.64448446 14.7703801,5.31245596 15.1022205,4.92508938 C14.7150734,4.5377228 14.3279264,4.2056943 13.996086,3.81832772 C12.1709642,5.64448446 9.68216166,6.8065842 7.19335914,7.35996503 C5.64477091,7.58131736 3.70903562,7.58131736 2.54759444,6.36387954 C5.81069108,5.14644171 9.18440116,3.76298964 11.7838171,1.32811399 Z"></path>
                    <path d="M55.0336742,20.5857669 C47.5672667,22.6332759 39.6584053,22.4119236 32.0813843,21.0284715 C32.2473045,21.9138809 32.3026112,22.8546283 32.4132247,23.7400376 C32.4132247,23.352671 32.4132247,23.0206425 32.3579179,22.6332759 C39.7690188,23.9613899 47.4566532,23.9613899 54.7571406,21.9692189 C54.8677541,21.5265143 54.9783675,21.0284715 55.088981,20.5857669 L55.0336742,20.5857669 Z"></path>
                </g>
                <g transform="translate(33.323637, 52.306449)" fill="#009444" id="Path">
                    <path d="M9.23622268,0 C6.63680672,2.43487565 3.31840336,3.81832772 0,5.03576555 C1.16144118,6.30854146 3.09717647,6.25320337 4.6457647,6.03185104 C7.18987394,5.47847021 9.62336974,4.31637047 11.4484916,2.49021373 C10.6741975,1.71548057 9.89990335,0.830071244 9.18091596,0 L9.23622268,0 Z"></path>
                    <path d="M19.9104202,9.4074741 C17.3110042,7.69199353 14.8775084,5.75516063 12.6099328,3.59697539 C12.2780924,3.92900389 11.8909454,4.26103239 11.5037983,4.59306089 C13.4395336,6.69590804 15.9283361,8.19003628 18.0852983,10.016193 C18.6936723,9.7395026 19.3020462,9.51815027 19.9104202,9.4074741 Z"></path>
                    <path d="M52.8179201,18.040215 C44.1347647,18.7596101 35.3409958,17.2101438 27.4321344,13.6131684 L27.321521,13.6131684 C27.708668,14.2218873 28.0958151,14.7752681 28.3723487,15.3839871 C36.0599832,18.2615674 44.466605,19.5343433 52.652,18.5935959 C52.652,18.4275816 52.7626134,18.2615674 52.8179201,18.040215 Z"></path>
                </g>
                <path d="M109.425687,53.0258438 C109.093847,53.7452388 108.485473,54.2986197 107.932406,54.8520005 C103.784402,58.504314 98.5302631,60.7178373 93.2761245,62.0459513 C92.8336707,62.1012894 92.4465236,62.1566275 92.0040699,62.3226417 C91.5063093,62.488656 91.0638556,62.5993321 90.5660951,62.7100083 C80.002511,64.5915031 68.6093262,62.8206845 59.3177968,57.3975523 C59.0412632,57.0655238 58.6541161,56.9548477 58.266969,56.7888334 C57.9904354,56.6228192 57.7139018,56.4568049 57.4373682,56.2354526 C51.7960825,52.4171249 47.4268514,46.9386546 44.2743682,40.9068036 C47.1503178,40.6854513 49.5838136,39.4126754 51.8513892,37.863209 C55.6675531,44.6697932 65.2909228,50.0929254 76.6841077,51.863744 C79.2282169,52.2511106 81.7723262,52.4724629 84.2611287,52.4724629 C93.3314312,52.4724629 101.240293,49.816235 105.49891,45.2231741 C107.158112,47.6580497 108.54078,50.2036015 109.536301,52.9705057 L109.425687,53.0258438 Z" id="Path" fill="url(#linearGradient-1)"></path>
                <path d="M97.4241287,36.2584046 C92.7230572,38.471928 85.3672631,39.0806469 77.7349354,37.9185471 C70.9875152,36.8671235 64.7378556,34.487586 60.7557716,31.4439914 C62.47028,30.3925678 70.2685278,26.0208593 82.6572337,28.3450588 C87.8007589,29.3411443 93.2761245,32.7721054 97.4241287,36.3137427 L97.4241287,36.2584046 Z" id="Path" fill="url(#linearGradient-2)"></path>
                <path d="M104.724616,44.3931028 C99.6363976,50.1482635 88.575053,52.7491534 76.7394144,50.9229966 C65.6227631,49.207516 56.275927,43.8950601 52.6256833,37.3651663 C55.0038724,35.5943476 57.2161413,33.6021767 59.7049438,32.1080484 C63.852948,35.4283334 70.2685278,37.9185471 77.5137085,39.0806469 C80.1131245,39.4680134 82.6572337,39.6893658 85.0907295,39.6893658 C90.2895614,39.6893658 94.9353262,38.8039564 98.2537295,37.143814 C99.0280236,37.863209 99.747011,38.527266 100.355385,39.191323 C101.903973,40.8514655 103.341948,42.6222842 104.669309,44.4484409 L104.724616,44.3931028 Z" id="Path" fill="url(#linearGradient-3)"></path>
                <path d="M90.0683346,29.8945251 C86.3074774,27.1276209 77.9561623,26.9062686 77.9561623,26.9062686 C77.9561623,26.9062686 71.429969,27.7363399 65.2356161,30.9459487 C68.7752463,32.6614292 73.1444774,33.9895432 77.7349354,34.7089383 C84.2611287,35.7050238 90.6214018,35.3729953 95.2671665,33.8788671 C93.165511,32.2187246 91.2850825,30.7799344 90.0130278,29.839187 L90.0683346,29.8945251 Z" id="Path" fill="#486C9E"></path>
                <path d="M103.950322,42.0135653 C103.784402,42.1795795 103.563175,42.3455938 103.397255,42.511608 C97.8665825,47.3260212 87.6348388,49.3735303 76.7947211,47.6580497 C68.1668724,46.3299357 60.5898514,42.8436365 55.9440867,38.2505756 C56.8289942,37.5311805 57.7139018,36.7011093 58.5988094,35.7603619 C59.4837169,34.8196145 60.4239312,33.9895432 61.4747589,33.2148101 C61.8065993,32.9934577 62.1384396,32.7167673 62.47028,32.5507531 C66.3970573,35.0409668 71.8724228,36.9777997 77.7902421,37.863209 C85.3672631,39.0253088 92.778364,38.4165899 97.4794354,36.2030666 C96.9263682,35.7603619 96.3733009,35.3176572 95.8202337,34.8749526 C95.9861539,34.8196145 96.2073808,34.7642764 96.3733009,34.7089383 C99.0280236,36.9224616 101.848666,39.4680134 104.005629,42.0135653 L103.950322,42.0135653 Z" id="Path" fill="#486C9E"></path>
                <path d="M108.927927,50.6463062 C108.817314,50.7569824 108.7067,50.9229966 108.596087,51.0336728 C108.37486,51.2550251 108.153633,51.4763774 107.932406,51.6977298 C103.784402,55.3500433 98.5302631,57.5635666 93.2761245,58.8916806 C92.8336707,58.9470186 92.4465236,59.0023567 92.0040699,59.168371 C91.5063093,59.3343852 91.0638556,59.4450614 90.5660951,59.5557376 C80.002511,61.4372324 68.6093262,59.6664137 59.3177968,54.2432816 C59.0412632,53.9112531 58.6541161,53.8005769 58.266969,53.6345627 C57.9904354,53.4685484 57.7139018,53.3025342 57.4373682,53.0811819 C53.3446707,50.3142777 49.9709606,46.7173023 47.2056245,42.6776223 C48.8648262,42.2349176 51.0217884,41.5155225 53.289364,40.1320704 C53.6212043,39.9660562 53.8977379,39.7447039 54.2295783,39.5233515 C58.5435026,45.0018217 67.0054312,49.3181922 76.7947211,50.8676585 C88.6303598,52.6938153 99.6917043,50.0929254 104.779923,44.3377647 C104.558696,44.0057362 104.337469,43.6737077 104.060935,43.3970173 C104.282162,43.2310031 104.448082,43.0649888 104.669309,42.8989746 C105.443603,43.839722 106.051977,44.8358075 106.549738,45.7212168 C108.153633,48.7648114 108.762007,50.0375873 108.983234,50.5909681 L108.927927,50.6463062 Z" id="Path" fill="#486C9E"></path>
                <path d="M109.757528,51.4763774 C109.757528,51.4763774 109.646914,51.4763774 109.591608,51.4763774 C108.153633,45.0571598 103.729095,39.8000419 99.1386371,35.3176572 C94.2163388,30.7245963 88.1325993,27.0722829 81.3851791,26.2422116 C75.5779732,25.4121404 69.438927,25.6888308 63.9635615,27.9576922 C59.870864,29.5624966 56.3312337,32.2187246 52.9022169,34.9302906 C50.1368808,37.0331378 47.2609312,39.3019992 43.721301,39.9660562 C43.9425279,40.2980847 44.108448,40.6854513 44.2743682,41.0174798 C47.1503178,40.7961274 49.5838136,39.5233515 51.8513892,37.9738852 C52.293843,38.7486184 52.7916035,39.4680134 53.3446707,40.1874085 C57.8245153,45.9425692 66.5629774,50.4249539 76.6841077,52.0297583 C79.2282169,52.4171249 81.7723262,52.6384772 84.2611287,52.6384772 C93.3314312,52.6384772 101.240293,49.9822492 105.49891,45.3891883 C106.715658,47.2153451 107.821793,49.0968399 108.7067,51.0890109 C108.983234,51.7530679 109.259767,52.4171249 109.536301,53.1365199 C109.646914,52.6938153 109.702221,52.2511106 109.702221,51.8084059 C109.702221,51.8084059 109.812835,51.8084059 109.868141,51.7530679 C109.978755,51.7530679 110.144675,51.6423917 110.255288,51.6423917 C110.144675,51.6423917 109.923448,51.6423917 109.868141,51.5870536 L109.757528,51.4763774 Z M82.6572337,28.3450588 C87.1370783,29.17513 91.8381497,31.9420342 95.764927,34.9302906 C96.3179942,35.3729953 96.8710614,35.8157 97.4241287,36.2584046 C92.7230572,38.471928 85.3672631,39.0806469 77.7349354,37.9185471 C71.8724228,36.9777997 66.3970573,35.0963049 62.4149732,32.6060912 C61.8065993,32.2187246 61.2535321,31.831358 60.7557716,31.4439914 C62.47028,30.3925678 70.2685278,26.0208593 82.6572337,28.3450588 L82.6572337,28.3450588 Z M76.7947211,50.9229966 C66.9501245,49.3735303 58.5435026,45.1124979 54.2295783,39.5786896 C53.6765111,38.8592945 53.1234438,38.0845614 52.7362968,37.3098282 C55.1144858,35.5390096 57.3267547,33.5468386 59.8155573,32.0527103 C60.3686245,32.495415 60.9216917,32.8827816 61.5300657,33.2701482 C65.6227631,35.9817142 71.3193556,38.0292233 77.624322,39.0253088 C80.2237379,39.4126754 82.7678472,39.6340277 85.201343,39.6340277 C90.4001749,39.6340277 95.0459396,38.7486184 98.364343,37.0884759 C99.1386371,37.807871 99.8576245,38.471928 100.465998,39.1359849 C101.461519,40.2427466 102.45704,41.4048463 103.397255,42.5669461 C103.618482,42.8436365 103.839708,43.175665 104.060935,43.4523554 C104.282162,43.7843839 104.558696,44.1164124 104.779923,44.3931028 C99.6917043,50.1482635 88.6303598,52.7491534 76.7947211,50.9229966 L76.7947211,50.9229966 Z" id="Shape" fill="#1A1A1A"></path>
            </g>
            <g transform="translate(56.000000, 49.000000)">
                <ellipse id="Oval" fill="#1A1A1A" cx="1.32110092" cy="1" rx="1.32110092" ry="1"></ellipse>
                <g transform="translate(0.357798, 0.000000)">
                    <path d="M1.23853211,1.91666667 C0.908256881,1.91666667 0.577981651,1.79166667 0.357798165,1.625 C0.137614679,1.45833333 0.0275229358,1.20833333 0.0275229358,0.958333333 C0.0275229358,0.708333333 0.19266055,0.458333333 0.412844037,0.291666667 C0.633027523,0.125 0.963302752,0.0416666667 1.23853211,0.0416666667 C1.51376147,0.0416666667 1.89908257,0.166666667 2.11926606,0.333333333 C2.6146789,0.708333333 2.55963303,1.29166667 2.11926606,1.66666667 C1.89908257,1.83333333 1.56880734,1.91666667 1.29357798,1.91666667 L1.23853211,1.91666667 Z" id="Path" fill="#28DB39"></path>
                    <path d="M1.23853211,0.0833333333 L1.23853211,0.0833333333 C1.56880734,0.0833333333 1.8440367,0.166666667 2.06422018,0.375 C2.50458716,0.75 2.50458716,1.29166667 2.06422018,1.625 C1.8440367,1.79166667 1.56880734,1.875 1.23853211,1.875 C0.908256881,1.875 0.633027523,1.79166667 0.412844037,1.58333333 C0.19266055,1.41666667 0.0825688073,1.16666667 0.0825688073,0.958333333 C0.0825688073,0.75 0.247706422,0.5 0.467889908,0.333333333 C0.688073394,0.166666667 0.963302752,0.0833333333 1.29357798,0.0833333333 M1.29357798,0 C0.963302752,0 0.633027523,0.0833333333 0.412844037,0.25 C-0.137614679,0.625 -0.137614679,1.25 0.412844037,1.66666667 C0.688073394,1.875 1.01834862,1.95833333 1.34862385,1.95833333 C1.67889908,1.95833333 2.00917431,1.875 2.2293578,1.70833333 C2.77981651,1.33333333 2.77981651,0.708333333 2.2293578,0.291666667 C1.95412844,0.0833333333 1.62385321,0 1.29357798,0 L1.29357798,0 Z" id="Shape" fill="#1A1A1A"></path>
                </g>
            </g>
            <g transform="translate(53.000000, 46.000000)">
                <ellipse id="Oval" fill="#1A1A1A" cx="1.36012378" cy="1" rx="1.36012378" ry="1"></ellipse>
                <g transform="translate(0.286966, 0.000000)">
                    <path d="M1.3565171,1.91666667 C1.07315797,1.91666667 0.789798853,1.83333333 0.563111556,1.70833333 C0.279752434,1.54166667 0.109736962,1.33333333 0.0530651374,1.08333333 C0.0530651374,0.833333333 0.0530651374,0.583333333 0.336424259,0.375 C0.563111556,0.125 0.959814326,0 1.3565171,0 C1.75321987,0 1.92323534,0.0833333333 2.14992264,0.208333333 C2.71664088,0.541666667 2.82998453,1.125 2.37660993,1.54166667 C2.14992264,1.79166667 1.75321987,1.91666667 1.3565171,1.91666667 Z" id="Path" fill="#28DB39"></path>
                    <path d="M1.3565171,0 L1.3565171,0.0833333333 C1.63987622,0.0833333333 1.86656351,0.166666667 2.09325081,0.25 C2.60329723,0.541666667 2.71664088,1.125 2.31993811,1.5 C2.09325081,1.70833333 1.75321987,1.83333333 1.3565171,1.83333333 C0.959814326,1.83333333 0.846470677,1.75 0.61978338,1.66666667 C0.393096083,1.54166667 0.22308061,1.33333333 0.166408786,1.08333333 C0.166408786,0.833333333 0.166408786,0.625 0.393096083,0.416666667 C0.61978338,0.208333333 0.959814326,0.0833333333 1.3565171,0.0833333333 L1.3565171,0 M1.3565171,0 C0.959814326,0 0.563111556,0.125 0.279752434,0.375 C-0.17362216,0.791666667 -0.0602785112,1.41666667 0.506439732,1.75 C0.733127029,1.875 1.01648615,1.95833333 1.3565171,1.95833333 C1.69654804,1.95833333 2.14992264,1.83333333 2.43328176,1.58333333 C2.88665635,1.16666667 2.7733127,0.541666667 2.20659446,0.208333333 C1.97990716,0.0833333333 1.69654804,0 1.3565171,0 L1.3565171,0 Z" id="Shape" fill="#1A1A1A"></path>
                </g>
            </g>
            <g transform="translate(50.000000, 42.000000)">
                <ellipse id="Oval" fill="#1A1A1A" cx="1.33490659" cy="1.46938776" rx="1.33490659" ry="1.46938776"></ellipse>
                <g transform="translate(0.392888, 0.122449)">
                    <path d="M1.27574566,2.81632653 C0.886397906,2.81632653 0.497050152,2.63265306 0.274565721,2.26530612 C-0.170403141,1.65306122 -0.0591609253,0.795918367 0.497050152,0.306122449 C0.719534583,0.12244898 0.997640122,0 1.27574566,0 C1.66509341,0 2.05444117,0.183673469 2.2769256,0.551020408 C2.49941003,0.857142857 2.55503114,1.2244898 2.49941003,1.59183673 C2.49941003,1.95918367 2.2769256,2.26530612 1.99882006,2.51020408 C1.77633563,2.69387755 1.49823009,2.81632653 1.22012455,2.81632653 L1.27574566,2.81632653 Z" id="Path" fill="#28DB39"></path>
                    <path d="M1.27574566,0.12244898 L1.27574566,0.12244898 C1.66509341,0.12244898 1.99882006,0.306122449 2.22130449,0.612244898 C2.61065225,1.16326531 2.49941003,2.02040816 1.99882006,2.44897959 C1.77633563,2.63265306 1.5538512,2.69387755 1.27574566,2.69387755 C0.886397906,2.69387755 0.55267126,2.51020408 0.330186829,2.20408163 C0.163323506,1.89795918 0.0520812901,1.59183673 0.107702398,1.2244898 C0.107702398,0.857142857 0.330186829,0.551020408 0.55267126,0.367346939 C0.775155691,0.183673469 0.997640122,0.12244898 1.27574566,0.12244898 M1.27574566,0 C0.997640122,0 0.719534583,0.12244898 0.497050152,0.306122449 C-0.0591609253,0.795918367 -0.170403141,1.71428571 0.274565721,2.32653061 C0.55267126,2.69387755 0.942019014,2.87755102 1.33136677,2.87755102 C1.72071452,2.87755102 1.88757785,2.75510204 2.11006228,2.57142857 C2.66627335,2.08163265 2.77751557,1.16326531 2.33254671,0.551020408 C2.05444117,0.183673469 1.66509341,0 1.27574566,0 L1.27574566,0 Z" id="Shape" fill="#1A1A1A"></path>
                </g>
            </g>
        </g>
    </g>
</svg>